<?xml version="1.0" standalone="no"?>
 <!DOCTYPE svg PUBLIC "-//W3C//DTD SVG 1.1//EN" 
 "http://www.w3.org/Graphics/SVG/1.1/DTD/svg11.dtd"> 
<svg
  xmlns:svg="http://www.w3.org/2000/svg"
  xmlns="http://www.w3.org/2000/svg"
  xmlns:xlink="http://www.w3.org/1999/xlink"
  version="1.1"
  width="120.9802mm" height="105.9942mm" viewBox="0.0000 0.0000 120.9802 105.9942">
<title>SVG Image created as cansat-F_Mask.svg date 2024/10/11 12:22:53 </title>
  <desc>Image generated by PCBNEW </desc>
<g style="fill:#000000; fill-opacity:1.0000;stroke:#000000; stroke-opacity:1.0000;
stroke-linecap:round; stroke-linejoin:round;"
 transform="translate(0 0) scale(1 1)">
</g>
<g style="fill:#D864FF; fill-opacity:0.4000; stroke:none;">
<circle cx="75.5470" cy="34.5230" r="0.7620" /> 
</g>
<g style="fill:#D864FF; fill-opacity:0.4000; stroke:none;">
<circle cx="78.0870" cy="34.5230" r="0.7620" /> 
</g>
<g style="fill:#D864FF; fill-opacity:0.4000; stroke:none;">
<circle cx="80.6270" cy="34.5230" r="0.7620" /> 
</g>
<g style="fill:#D864FF; fill-opacity:0.4000; stroke:none;">
<circle cx="83.1670" cy="34.5230" r="0.7620" /> 
</g>
<g style="fill:#D864FF; fill-opacity:0.4000; stroke:none;">
<circle cx="85.7070" cy="34.5230" r="0.7620" /> 
<path style="fill:#D864FF; fill-opacity:0.4000; stroke:none;fill-rule:evenodd;"
d="M 27.5000,86.0300
27.5000,87.7300
25.8000,87.7300
25.8000,86.0300
Z" /> 
</g>
<g style="fill:#D864FF; fill-opacity:0.4000; stroke:none;">
<circle cx="26.6500" cy="84.3400" r="0.8500" /> 
<circle cx="26.6500" cy="81.8000" r="0.8500" /> 
<path style="fill:#D864FF; fill-opacity:0.4000; stroke:none;fill-rule:evenodd;"
d="M 29.7000,85.2600
29.7000,83.6600
31.3000,83.6600
31.3000,85.2600
Z" /> 
<circle cx="30.5000" cy="87.0000" r="0.8000" /> 
<circle cx="30.5000" cy="89.5400" r="0.8000" /> 
<circle cx="30.5000" cy="92.0800" r="0.8000" /> 
<circle cx="38.1200" cy="92.0800" r="0.8000" /> 
<circle cx="38.1200" cy="89.5400" r="0.8000" /> 
<circle cx="38.1200" cy="87.0000" r="0.8000" /> 
<circle cx="38.1200" cy="84.4600" r="0.8000" /> 
<circle cx="17.5000" cy="34.0000" r="0.8000" /> 
</g>
<g style="fill:#D864FF; fill-opacity:0.4000; stroke:none;">
<circle cx="27.6600" cy="34.0000" r="0.8000" /> 
<path style="fill:#D864FF; fill-opacity:0.4000; stroke:none;fill-rule:evenodd;"
d="M 10.6500,46.7700
10.6500,45.0700
12.3500,45.0700
12.3500,46.7700
Z" /> 
<circle cx="11.5000" cy="48.4600" r="0.8500" /> 
<circle cx="11.5000" cy="51.0000" r="0.8500" /> 
<circle cx="11.5000" cy="53.5400" r="0.8500" /> 
<circle cx="11.5000" cy="56.0800" r="0.8500" /> 
<circle cx="11.5000" cy="58.6200" r="0.8500" /> 
<circle cx="65.5000" cy="27.4200" r="0.8000" /> 
</g>
<g style="fill:#D864FF; fill-opacity:0.4000; stroke:none;">
<circle cx="65.5000" cy="37.5800" r="0.8000" /> 
<circle cx="41.0000" cy="27.9200" r="0.8000" /> 
</g>
<g style="fill:#D864FF; fill-opacity:0.4000; stroke:none;">
<circle cx="41.0000" cy="38.0800" r="0.8000" /> 
<circle cx="43.4900" cy="96.9000" r="0.9270" /> 
</g>
<g style="fill:#D864FF; fill-opacity:0.4000; stroke:none;">
<circle cx="43.4900" cy="94.3600" r="0.9270" /> 
</g>
<g style="fill:#D864FF; fill-opacity:0.4000; stroke:none;">
<circle cx="43.4900" cy="91.8200" r="0.9270" /> 
</g>
<g style="fill:#D864FF; fill-opacity:0.4000; stroke:none;">
<circle cx="43.4900" cy="89.2800" r="0.9270" /> 
</g>
<g style="fill:#D864FF; fill-opacity:0.4000; stroke:none;">
<circle cx="43.4900" cy="86.7400" r="0.9270" /> 
</g>
<g style="fill:#D864FF; fill-opacity:0.4000; stroke:none;">
<circle cx="43.4900" cy="84.2000" r="0.9270" /> 
</g>
<g style="fill:#D864FF; fill-opacity:0.4000; stroke:none;">
<circle cx="43.4900" cy="81.6600" r="0.9270" /> 
</g>
<g style="fill:#D864FF; fill-opacity:0.4000; stroke:none;">
<circle cx="43.4900" cy="79.1200" r="0.9270" /> 
</g>
<g style="fill:#D864FF; fill-opacity:0.4000; stroke:none;">
<circle cx="43.4900" cy="76.5800" r="0.9270" /> 
</g>
<g style="fill:#D864FF; fill-opacity:0.4000; stroke:none;">
<circle cx="43.4900" cy="74.0400" r="0.9270" /> 
</g>
<g style="fill:#D864FF; fill-opacity:0.4000; stroke:none;">
<circle cx="43.4900" cy="71.5000" r="0.9270" /> 
</g>
<g style="fill:#D864FF; fill-opacity:0.4000; stroke:none;">
<circle cx="43.4900" cy="68.9600" r="0.9270" /> 
</g>
<g style="fill:#D864FF; fill-opacity:0.4000; stroke:none;">
<circle cx="43.4900" cy="66.4200" r="0.9270" /> 
</g>
<g style="fill:#D864FF; fill-opacity:0.4000; stroke:none;">
<circle cx="43.4900" cy="63.8800" r="0.9270" /> 
</g>
<g style="fill:#D864FF; fill-opacity:0.4000; stroke:none;">
<circle cx="43.4900" cy="61.3400" r="0.9270" /> 
</g>
<g style="fill:#D864FF; fill-opacity:0.4000; stroke:none;">
<circle cx="43.4900" cy="58.8000" r="0.9270" /> 
</g>
<g style="fill:#D864FF; fill-opacity:0.4000; stroke:none;">
<circle cx="43.4900" cy="56.2600" r="0.9270" /> 
</g>
<g style="fill:#D864FF; fill-opacity:0.4000; stroke:none;">
<circle cx="43.4900" cy="53.7200" r="0.9270" /> 
<path style="fill:#D864FF; fill-opacity:0.4000; stroke:none;fill-rule:evenodd;"
d="M 67.4370,97.7250
67.4292,97.7640
67.4071,97.7971
67.3740,97.8192
67.3350,97.8270
65.6850,97.8270
65.6460,97.8192
65.6129,97.7971
65.5908,97.7640
65.5830,97.7250
65.5830,96.0750
65.5908,96.0360
65.6129,96.0029
65.6460,95.9808
65.6850,95.9730
67.3350,95.9730
67.3740,95.9808
67.4071,96.0029
67.4292,96.0360
67.4370,96.0750
Z" /> 
</g>
<g style="fill:#D864FF; fill-opacity:0.4000; stroke:none;">
<circle cx="66.5100" cy="94.3600" r="0.9270" /> 
</g>
<g style="fill:#D864FF; fill-opacity:0.4000; stroke:none;">
<circle cx="66.5100" cy="91.8200" r="0.9270" /> 
</g>
<g style="fill:#D864FF; fill-opacity:0.4000; stroke:none;">
<circle cx="66.5100" cy="89.2800" r="0.9270" /> 
</g>
<g style="fill:#D864FF; fill-opacity:0.4000; stroke:none;">
<circle cx="66.5100" cy="86.7400" r="0.9270" /> 
</g>
<g style="fill:#D864FF; fill-opacity:0.4000; stroke:none;">
<circle cx="66.5100" cy="84.2000" r="0.9270" /> 
</g>
<g style="fill:#D864FF; fill-opacity:0.4000; stroke:none;">
<circle cx="66.5100" cy="81.6600" r="0.9270" /> 
</g>
<g style="fill:#D864FF; fill-opacity:0.4000; stroke:none;">
<circle cx="66.5100" cy="79.1200" r="0.9270" /> 
</g>
<g style="fill:#D864FF; fill-opacity:0.4000; stroke:none;">
<circle cx="66.5100" cy="76.5800" r="0.9270" /> 
</g>
<g style="fill:#D864FF; fill-opacity:0.4000; stroke:none;">
<circle cx="66.5100" cy="74.0400" r="0.9270" /> 
</g>
<g style="fill:#D864FF; fill-opacity:0.4000; stroke:none;">
<circle cx="66.5100" cy="71.5000" r="0.9270" /> 
</g>
<g style="fill:#D864FF; fill-opacity:0.4000; stroke:none;">
<circle cx="66.5100" cy="68.9600" r="0.9270" /> 
</g>
<g style="fill:#D864FF; fill-opacity:0.4000; stroke:none;">
<circle cx="66.5100" cy="66.4200" r="0.9270" /> 
</g>
<g style="fill:#D864FF; fill-opacity:0.4000; stroke:none;">
<circle cx="66.5100" cy="63.8800" r="0.9270" /> 
</g>
<g style="fill:#D864FF; fill-opacity:0.4000; stroke:none;">
<circle cx="66.5100" cy="61.3400" r="0.9270" /> 
</g>
<g style="fill:#D864FF; fill-opacity:0.4000; stroke:none;">
<circle cx="66.5100" cy="58.8000" r="0.9270" /> 
</g>
<g style="fill:#D864FF; fill-opacity:0.4000; stroke:none;">
<circle cx="66.5100" cy="56.2600" r="0.9270" /> 
</g>
<g style="fill:#D864FF; fill-opacity:0.4000; stroke:none;">
<circle cx="66.5100" cy="53.7200" r="0.9270" /> 
</g>
<g style="fill:#D864FF; fill-opacity:0.4000; stroke:none;">
<circle cx="62.2630" cy="32.5150" r="0.7620" /> 
</g>
<g style="fill:#D864FF; fill-opacity:0.4000; stroke:none;">
<circle cx="59.7230" cy="32.5150" r="0.7620" /> 
</g>
<g style="fill:#D864FF; fill-opacity:0.4000; stroke:none;">
<circle cx="57.1830" cy="32.5150" r="0.7620" /> 
</g>
<g style="fill:#D864FF; fill-opacity:0.4000; stroke:none;">
<circle cx="54.6430" cy="32.5150" r="0.7620" /> 
</g>
<g style="fill:#D864FF; fill-opacity:0.4000; stroke:none;">
<circle cx="52.1030" cy="32.5150" r="0.7620" /> 
</g>
<g style="fill:#D864FF; fill-opacity:0.4000; stroke:none;">
<circle cx="49.5630" cy="32.5150" r="0.7620" /> 
</g>
<g style="fill:#D864FF; fill-opacity:0.4000; stroke:none;">
<circle cx="47.0230" cy="32.5150" r="0.7620" /> 
</g>
<g style="fill:#D864FF; fill-opacity:0.4000; stroke:none;">
<circle cx="44.4830" cy="32.5150" r="0.7620" /> 
<path style="fill:#D864FF; fill-opacity:0.4000; stroke:none;fill-rule:evenodd;"
d="M 55.8100,103.3500
54.1100,103.3500
54.1100,101.6500
55.8100,101.6500
Z" /> 
</g>
<g style="fill:#D864FF; fill-opacity:0.4000; stroke:none;">
<circle cx="57.5000" cy="102.5000" r="0.8500" /> 
<path style="fill:#D864FF; fill-opacity:0.4000; stroke:none;fill-rule:evenodd;"
d="M 36.6500,14.8250
36.6500,13.1250
38.3500,13.1250
38.3500,14.8250
Z" /> 
<circle cx="37.5000" cy="16.5150" r="0.8500" /> 
<circle cx="37.5000" cy="19.0550" r="0.8500" /> 
<path style="fill:#D864FF; fill-opacity:0.4000; stroke:none;fill-rule:evenodd;"
d="M 30.9949,34.8000
30.9949,33.2000
32.5949,33.2000
32.5949,34.8000
Z" /> 
<circle cx="34.2949" cy="34.0000" r="0.8000" /> 
<path style="fill:#D864FF; fill-opacity:0.4000; stroke:none;fill-rule:evenodd;"
d="M 100.1500,51.2750
100.1500,49.5750
101.8500,49.5750
101.8500,51.2750
Z" /> 
</g>
<g style="fill:#D864FF; fill-opacity:0.4000; stroke:none;">
<circle cx="101.0000" cy="52.9650" r="0.8500" /> 
<circle cx="33.4200" cy="25.0000" r="0.8000" /> 
</g>
<g style="fill:#D864FF; fill-opacity:0.4000; stroke:none;">
<circle cx="43.5800" cy="25.0000" r="0.8000" /> 
<circle cx="12.0000" cy="72.0800" r="0.8000" /> 
</g>
<g style="fill:#D864FF; fill-opacity:0.4000; stroke:none;">
<circle cx="12.0000" cy="61.9200" r="0.8000" /> 
<path style="fill:#D864FF; fill-opacity:0.4000; stroke:none;fill-rule:evenodd;"
d="M 24.3200,73.3000
22.6200,73.3000
22.6200,71.6000
24.3200,71.6000
Z" /> 
<circle cx="26.0100" cy="72.4500" r="0.8500" /> 
<circle cx="28.5500" cy="72.4500" r="0.8500" /> 
<circle cx="31.0900" cy="72.4500" r="0.8500" /> 
<circle cx="58.9530" cy="16.2770" r="0.7620" /> 
</g>
<g style="fill:#D864FF; fill-opacity:0.4000; stroke:none;">
<circle cx="56.4130" cy="16.2770" r="0.7620" /> 
</g>
<g style="fill:#D864FF; fill-opacity:0.4000; stroke:none;">
<circle cx="53.8730" cy="16.2770" r="0.7620" /> 
</g>
<g style="fill:#D864FF; fill-opacity:0.4000; stroke:none;">
<circle cx="51.3330" cy="16.2770" r="0.7620" /> 
</g>
<g style="fill:#D864FF; fill-opacity:0.4000; stroke:none;">
<circle cx="48.7930" cy="16.2770" r="0.7620" /> 
<path style="fill:#D864FF; fill-opacity:0.4000; stroke:none;fill-rule:evenodd;"
d="M 57.9500,8.1500
59.6500,8.1500
59.6500,9.8500
57.9500,9.8500
Z" /> 
</g>
<g style="fill:#D864FF; fill-opacity:0.4000; stroke:none;">
<circle cx="56.2600" cy="9.0000" r="0.8500" /> 
<circle cx="53.7200" cy="9.0000" r="0.8500" /> 
<circle cx="51.1800" cy="9.0000" r="0.8500" /> 
<path style="fill:#D864FF; fill-opacity:0.4000; stroke:none;fill-rule:evenodd;"
d="M 101.8500,62.2300
101.8500,63.9300
100.1500,63.9300
100.1500,62.2300
Z" /> 
<circle cx="101.0000" cy="60.5400" r="0.8500" /> 
<circle cx="101.0000" cy="58.0000" r="0.8500" /> 
<circle cx="27.6000" cy="25.0000" r="0.7500" /> 
</g>
<g style="fill:#D864FF; fill-opacity:0.4000; stroke:none;">
<circle cx="31.0000" cy="25.0000" r="0.7500" /> 
<path style="fill:#D864FF; fill-opacity:0.4000; stroke:none;fill-rule:evenodd;"
d="M 22.8500,86.0300
22.8500,87.7300
21.1500,87.7300
21.1500,86.0300
Z" /> 
</g>
<g style="fill:#D864FF; fill-opacity:0.4000; stroke:none;">
<circle cx="22.0000" cy="84.3400" r="0.8500" /> 
<circle cx="22.0000" cy="81.8000" r="0.8500" /> 
<circle cx="94.9000" cy="55.8400" r="0.9500" /> 
</g>
<g style="fill:#D864FF; fill-opacity:0.4000; stroke:none;">
<circle cx="94.9000" cy="53.3000" r="0.9500" /> 
</g>
<g style="fill:#D864FF; fill-opacity:0.4000; stroke:none;">
<circle cx="94.9000" cy="50.7600" r="0.9500" /> 
</g>
<g style="fill:#D864FF; fill-opacity:0.4000; stroke:none;">
<circle cx="94.9000" cy="48.2200" r="0.9500" /> 
</g>
<g style="fill:#D864FF; fill-opacity:0.4000; stroke:none;">
<circle cx="94.9000" cy="45.6800" r="0.9500" /> 
</g>
<g style="fill:#D864FF; fill-opacity:0.4000; stroke:none;">
<circle cx="94.9000" cy="43.1400" r="0.9500" /> 
</g>
<g style="fill:#D864FF; fill-opacity:0.4000; stroke:none;">
<circle cx="73.0300" cy="40.6000" r="0.9500" /> 
</g>
<g style="fill:#D864FF; fill-opacity:0.4000; stroke:none;">
<circle cx="73.0300" cy="43.1400" r="0.9500" /> 
</g>
<g style="fill:#D864FF; fill-opacity:0.4000; stroke:none;">
<circle cx="73.0300" cy="45.6800" r="0.9500" /> 
</g>
<g style="fill:#D864FF; fill-opacity:0.4000; stroke:none;">
<circle cx="73.0300" cy="48.2200" r="0.9500" /> 
</g>
<g style="fill:#D864FF; fill-opacity:0.4000; stroke:none;">
<circle cx="73.0300" cy="50.7600" r="0.9500" /> 
</g>
<g style="fill:#D864FF; fill-opacity:0.4000; stroke:none;">
<circle cx="73.0300" cy="53.3000" r="0.9500" /> 
</g>
<g style="fill:#D864FF; fill-opacity:0.4000; stroke:none;">
<circle cx="15.4200" cy="78.0000" r="0.8000" /> 
</g>
<g style="fill:#D864FF; fill-opacity:0.4000; stroke:none;">
<circle cx="25.5800" cy="78.0000" r="0.8000" /> 
<path style="fill:#D864FF; fill-opacity:0.4000; stroke:none;fill-rule:evenodd;"
d="M 40.3500,14.9100
40.3500,13.2100
42.0500,13.2100
42.0500,14.9100
Z" /> 
<circle cx="41.2000" cy="16.6000" r="0.8500" /> 
<circle cx="41.2000" cy="19.1400" r="0.8500" /> 
<path style="fill:#D864FF; fill-opacity:0.4000; stroke:none;fill-rule:evenodd;"
d="M 57.6900,12.1500
59.3900,12.1500
59.3900,13.8500
57.6900,13.8500
Z" /> 
<circle cx="56.0000" cy="13.0000" r="0.8500" /> 
<circle cx="53.4600" cy="13.0000" r="0.8500" /> 
<circle cx="50.9200" cy="13.0000" r="0.8500" /> 
<path style="fill:#D864FF; fill-opacity:0.4000; stroke:none;fill-rule:evenodd;"
d="M 32.8500,14.7700
32.8500,13.0700
34.5500,13.0700
34.5500,14.7700
Z" /> 
<circle cx="33.7000" cy="16.4600" r="0.8500" /> 
<circle cx="33.7000" cy="19.0000" r="0.8500" /> 
<path style="fill:#D864FF; fill-opacity:0.4000; stroke:none;fill-rule:evenodd;"
d="M 89.2000,87.5500
87.5000,87.5500
87.5000,85.8500
89.2000,85.8500
Z" /> 
<circle cx="85.8100" cy="86.7000" r="0.8500" /> 
<circle cx="83.2700" cy="86.7000" r="0.8500" /> 
<circle cx="80.7300" cy="86.7000" r="0.8500" /> 
<circle cx="78.1900" cy="86.7000" r="0.8500" /> 
<circle cx="75.6500" cy="86.7000" r="0.8500" /> 
</g>
<g style="fill:none; 
stroke:#D0D2CD; stroke-width:0.0500; stroke-opacity:1; 
stroke-linecap:round; stroke-linejoin:round;">
<circle cx="56.5000" cy="55.0000" r="50.0000" /> 
</g> 
</svg>
