M48
; DRILL file {KiCad 8.0.4} date 2024-10-11T13:15:16-0600
; FORMAT={-:-/ absolute / inch / decimal}
; #@! TF.CreationDate,2024-10-11T13:15:16-06:00
; #@! TF.GenerationSoftware,Kicad,Pcbnew,8.0.4
; #@! TF.FileFunction,Plated,1,4,PTH
FMAT,2
INCH
; #@! TA.AperFunction,Plated,PTH,ViaDrill
T1C0.0118
; #@! TA.AperFunction,Plated,PTH,ComponentDrill
T2C0.0300
; #@! TA.AperFunction,Plated,PTH,ComponentDrill
T3C0.0315
; #@! TA.AperFunction,Plated,PTH,ComponentDrill
T4C0.0354
; #@! TA.AperFunction,Plated,PTH,ComponentDrill
T5C0.0394
; #@! TA.AperFunction,Plated,PTH,ComponentDrill
T6C0.0433
%
G90
G05
T1
X3.937Y-3.189
X3.937Y-3.7008
X4.1732Y-2.7165
X4.2126Y-3.9764
X4.2126Y-4.1339
X4.252Y-3.1496
X4.3701Y-3.4646
X4.4094Y-2.3228
X4.4094Y-4.3307
X4.4488Y-2.7165
X4.6063Y-3.6614
X4.6063Y-4.5669
X4.685Y-2.9921
X4.8071Y-4.2874
X4.8425Y-2.3622
X4.8819Y-3.4646
X4.8819Y-4.3307
X4.9213Y-3.7008
X4.9213Y-5.0787
X4.9606Y-4.6457
X4.9606Y-4.7638
X5.063Y-3.0236
X5.1417Y-3.248
X5.1575Y-3.9764
X5.2362Y-4.4488
X5.2362Y-4.6063
X5.2362Y-4.685
X5.2362Y-4.8031
X5.5512Y-4.5669
X5.5906Y-3.6614
X5.5906Y-5.2362
X5.6299Y-3.3858
X5.6693Y-1.6535
X5.685Y-1.7913
X5.6969Y-4.126
X5.748Y-2.2047
X5.7874Y-1.6535
X5.8268Y-2.9134
X5.8268Y-3.3071
X5.8268Y-3.7008
X5.9449Y-4.1732
X5.9843Y-4.6063
X6.063Y-3.8583
X6.2992Y-1.8898
X6.2992Y-3.0315
X6.3819Y-4.0827
X6.3819Y-4.185
X6.3858Y-3.9764
X6.4291Y-3.8898
X6.5354Y-4.9606
X6.5433Y-3.7441
X6.5748Y-2.8346
X6.6142Y-3.3071
X6.6299Y-2.0433
X6.6417Y-4.4528
X6.6929Y-1.811
X6.7441Y-4.4213
X6.7717Y-3.4882
X6.8465Y-4.3504
X7.0276Y-3.8819
X7.0945Y-3.2323
X7.5197Y-3.1496
T2
X5.3733Y-2.5006
X5.4733Y-2.5006
X5.543Y-1.8613
X5.5733Y-2.5006
X5.643Y-1.8613
X5.6733Y-2.5006
X5.743Y-1.8613
X5.7733Y-2.5006
X5.843Y-1.8613
X5.8733Y-2.5006
X5.943Y-1.8613
X5.9733Y-2.5006
X6.0733Y-2.5006
X6.5963Y-2.5796
X6.6963Y-2.5796
X6.7963Y-2.5796
X6.8963Y-2.5796
X6.9963Y-2.5796
T3
X4.0945Y-3.6583
X4.0945Y-4.0583
X4.2291Y-4.2913
X4.311Y-2.5591
X4.6291Y-4.2913
X4.7087Y-2.2047
X4.711Y-2.5591
X4.8228Y-4.5457
X4.8228Y-4.6457
X4.8228Y-4.7457
X4.8228Y-4.8457
X4.8425Y-2.2047
X4.8738Y-2.5591
X4.9378Y-2.2047
X4.9722Y-2.5591
X5.1228Y-4.5457
X5.1228Y-4.6457
X5.1228Y-4.7457
X5.1228Y-4.8457
X5.2362Y-2.3197
X5.2362Y-2.7197
X5.3378Y-2.2047
X6.2008Y-2.3
X6.2008Y-2.7
T4
X6.4972Y-2.8189
X6.4972Y-2.9189
X6.4972Y-3.0189
X6.4972Y-3.1189
X6.4972Y-3.2189
X6.4972Y-3.3189
X7.3583Y-2.9189
X7.3583Y-3.0189
X7.3583Y-3.1189
X7.3583Y-3.2189
X7.3583Y-3.3189
X7.3583Y-3.4189
T5
X4.0748Y-3.0283
X4.0748Y-3.1283
X4.0748Y-3.2283
X4.0748Y-3.3283
X4.0748Y-3.4283
X4.0748Y-3.5283
X4.4882Y-4.4409
X4.4882Y-4.5409
X4.4882Y-4.6409
X4.5461Y-4.0728
X4.6461Y-4.0728
X4.6713Y-4.4409
X4.6713Y-4.5409
X4.6713Y-4.6409
X4.7461Y-4.0728
X4.8461Y-4.0728
X4.9488Y-1.7685
X4.9488Y-1.8685
X4.9488Y-1.9685
X5.0984Y-1.7707
X5.0984Y-1.8707
X5.0984Y-1.9707
X5.2441Y-1.774
X5.2441Y-1.874
X5.2441Y-1.974
X5.6268Y-1.7323
X5.637Y-1.5748
X5.7268Y-1.7323
X5.737Y-1.5748
X5.7858Y-5.2559
X5.8268Y-1.7323
X5.837Y-1.5748
X5.8858Y-5.2559
X5.9268Y-1.7323
X5.937Y-1.5748
X6.6004Y-4.6339
X6.7004Y-4.6339
X6.8004Y-4.6339
X6.9004Y-4.6339
X7.0004Y-4.6339
X7.1004Y-4.6339
X7.5984Y-3.2057
X7.5984Y-3.3057
X7.5984Y-3.5039
X7.5984Y-3.6039
X7.5984Y-3.7039
T6
X5.3343Y-3.3354
X5.3343Y-3.4354
X5.3343Y-3.5354
X5.3343Y-3.6354
X5.3343Y-3.7354
X5.3343Y-3.8354
X5.3343Y-3.9354
X5.3343Y-4.0354
X5.3343Y-4.1354
X5.3343Y-4.2354
X5.3343Y-4.3354
X5.3343Y-4.4354
X5.3343Y-4.5354
X5.3343Y-4.6354
X5.3343Y-4.7354
X5.3343Y-4.8354
X5.3343Y-4.9354
X5.3343Y-5.0354
X6.2406Y-3.3354
X6.2406Y-3.4354
X6.2406Y-3.5354
X6.2406Y-3.6354
X6.2406Y-3.7354
X6.2406Y-3.8354
X6.2406Y-3.9354
X6.2406Y-4.0354
X6.2406Y-4.1354
X6.2406Y-4.2354
X6.2406Y-4.3354
X6.2406Y-4.4354
X6.2406Y-4.5354
X6.2406Y-4.6354
X6.2406Y-4.7354
X6.2406Y-4.8354
X6.2406Y-4.9354
X6.2406Y-5.0354
M30
