%TF.GenerationSoftware,KiCad,Pcbnew,8.0.4*%
%TF.CreationDate,2024-10-11T13:15:18-06:00*%
%TF.ProjectId,cansat,63616e73-6174-42e6-9b69-6361645f7063,rev?*%
%TF.SameCoordinates,Original*%
%TF.FileFunction,Legend,Bot*%
%TF.FilePolarity,Positive*%
%FSLAX46Y46*%
G04 Gerber Fmt 4.6, Leading zero omitted, Abs format (unit mm)*
G04 Created by KiCad (PCBNEW 8.0.4) date 2024-10-11 13:15:18*
%MOMM*%
%LPD*%
G01*
G04 APERTURE LIST*
%ADD10C,0.400000*%
%ADD11C,0.000000*%
%ADD12C,0.100000*%
%ADD13C,0.120000*%
%ADD14C,0.050000*%
G04 APERTURE END LIST*
D10*
G36*
X153642009Y-126200000D02*
G01*
X153642009Y-124511793D01*
X154239427Y-124511793D01*
X154239427Y-124167899D01*
X152639148Y-124167899D01*
X152639148Y-124511793D01*
X153235101Y-124511793D01*
X153235101Y-126200000D01*
X153642009Y-126200000D01*
G37*
G36*
X152543405Y-126200000D02*
G01*
X152543405Y-125949895D01*
X151996789Y-125254291D01*
X151933775Y-125175034D01*
X151867371Y-125093480D01*
X151801586Y-125016557D01*
X151797487Y-125012002D01*
X151898352Y-125012002D01*
X151974808Y-125012002D01*
X152490160Y-125012002D01*
X152490160Y-124730635D01*
X151283600Y-124730635D01*
X151283600Y-124980739D01*
X151841451Y-125685136D01*
X152037822Y-125918632D01*
X151934462Y-125918632D01*
X151838520Y-125918632D01*
X151241102Y-125918632D01*
X151241102Y-126200000D01*
X152543405Y-126200000D01*
G37*
G36*
X150991974Y-124886950D02*
G01*
X151064759Y-124510327D01*
X151064759Y-124167899D01*
X150644661Y-124167899D01*
X150644661Y-124510327D01*
X150707676Y-124886950D01*
X150991974Y-124886950D01*
G37*
G36*
X149364829Y-126200000D02*
G01*
X149364829Y-125981646D01*
X149431621Y-126062132D01*
X149512565Y-126128467D01*
X149574389Y-126164829D01*
X149665174Y-126202652D01*
X149768294Y-126226008D01*
X149848429Y-126231263D01*
X149954148Y-126222126D01*
X150051487Y-126194718D01*
X150111723Y-126166294D01*
X150195939Y-126104881D01*
X150258872Y-126026215D01*
X150280739Y-125984089D01*
X150312590Y-125883224D01*
X150327903Y-125779965D01*
X150332956Y-125672103D01*
X150333007Y-125659246D01*
X150333007Y-124730635D01*
X149947103Y-124730635D01*
X149947103Y-125413049D01*
X149946365Y-125521951D01*
X149943637Y-125627471D01*
X149937175Y-125729069D01*
X149926099Y-125796999D01*
X149877285Y-125883227D01*
X149848429Y-125908862D01*
X149756432Y-125945888D01*
X149705303Y-125949895D01*
X149606252Y-125934316D01*
X149528471Y-125894696D01*
X149455759Y-125824251D01*
X149421004Y-125757920D01*
X149402344Y-125652141D01*
X149395589Y-125548178D01*
X149392634Y-125432917D01*
X149392184Y-125356873D01*
X149392184Y-124730635D01*
X149006280Y-124730635D01*
X149006280Y-126200000D01*
X149364829Y-126200000D01*
G37*
G36*
X147288276Y-126200000D02*
G01*
X147674180Y-126200000D01*
X147674180Y-125441381D01*
X147675737Y-125331594D01*
X147681211Y-125233483D01*
X147697560Y-125134320D01*
X147699092Y-125129727D01*
X147750353Y-125044312D01*
X147779204Y-125019818D01*
X147870863Y-124983830D01*
X147913049Y-124980739D01*
X148014038Y-124996594D01*
X148093300Y-125036915D01*
X148163838Y-125106561D01*
X148202721Y-125185415D01*
X148221698Y-125286307D01*
X148229168Y-125386474D01*
X148231916Y-125496338D01*
X148232030Y-125526866D01*
X148232030Y-126200000D01*
X148617934Y-126200000D01*
X148617934Y-124730635D01*
X148259385Y-124730635D01*
X148259385Y-124945080D01*
X148184292Y-124861577D01*
X148102261Y-124795351D01*
X148013292Y-124746402D01*
X147917384Y-124714728D01*
X147814539Y-124700331D01*
X147778715Y-124699371D01*
X147678438Y-124707030D01*
X147578741Y-124732409D01*
X147545219Y-124745778D01*
X147457220Y-124794865D01*
X147384996Y-124863991D01*
X147334506Y-124950957D01*
X147309769Y-125027145D01*
X147294342Y-125129713D01*
X147288801Y-125236806D01*
X147288276Y-125287997D01*
X147288276Y-126200000D01*
G37*
G36*
X145945429Y-126200000D02*
G01*
X145945429Y-125981646D01*
X146012221Y-126062132D01*
X146093165Y-126128467D01*
X146154989Y-126164829D01*
X146245774Y-126202652D01*
X146348894Y-126226008D01*
X146429030Y-126231263D01*
X146534748Y-126222126D01*
X146632087Y-126194718D01*
X146692323Y-126166294D01*
X146776539Y-126104881D01*
X146839472Y-126026215D01*
X146861339Y-125984089D01*
X146893190Y-125883224D01*
X146908503Y-125779965D01*
X146913556Y-125672103D01*
X146913607Y-125659246D01*
X146913607Y-124730635D01*
X146527704Y-124730635D01*
X146527704Y-125413049D01*
X146526965Y-125521951D01*
X146524237Y-125627471D01*
X146517776Y-125729069D01*
X146506699Y-125796999D01*
X146457885Y-125883227D01*
X146429030Y-125908862D01*
X146337032Y-125945888D01*
X146285903Y-125949895D01*
X146186852Y-125934316D01*
X146109071Y-125894696D01*
X146036360Y-125824251D01*
X146001605Y-125757920D01*
X145982944Y-125652141D01*
X145976189Y-125548178D01*
X145973234Y-125432917D01*
X145972784Y-125356873D01*
X145972784Y-124730635D01*
X145586880Y-124730635D01*
X145586880Y-126200000D01*
X145945429Y-126200000D01*
G37*
G36*
X143868876Y-126200000D02*
G01*
X144254780Y-126200000D01*
X144254780Y-125441381D01*
X144256337Y-125331594D01*
X144261811Y-125233483D01*
X144278160Y-125134320D01*
X144279692Y-125129727D01*
X144330953Y-125044312D01*
X144359804Y-125019818D01*
X144451463Y-124983830D01*
X144493649Y-124980739D01*
X144594638Y-124996594D01*
X144673900Y-125036915D01*
X144744438Y-125106561D01*
X144783321Y-125185415D01*
X144802298Y-125286307D01*
X144809768Y-125386474D01*
X144812516Y-125496338D01*
X144812630Y-125526866D01*
X144812630Y-126200000D01*
X145198534Y-126200000D01*
X145198534Y-124730635D01*
X144839986Y-124730635D01*
X144839986Y-124945080D01*
X144764892Y-124861577D01*
X144682861Y-124795351D01*
X144593892Y-124746402D01*
X144497984Y-124714728D01*
X144395139Y-124700331D01*
X144359316Y-124699371D01*
X144259038Y-124707030D01*
X144159341Y-124732409D01*
X144125819Y-124745778D01*
X144037820Y-124794865D01*
X143965596Y-124863991D01*
X143915107Y-124950957D01*
X143890369Y-125027145D01*
X143874942Y-125129713D01*
X143869401Y-125236806D01*
X143868876Y-125287997D01*
X143868876Y-126200000D01*
G37*
G36*
X142191905Y-126200000D02*
G01*
X142911933Y-124167899D01*
X142470830Y-124167899D01*
X141961339Y-125668527D01*
X141467969Y-124167899D01*
X141036636Y-124167899D01*
X141757641Y-126200000D01*
X142191905Y-126200000D01*
G37*
G36*
X139582777Y-124172944D02*
G01*
X139680413Y-124192315D01*
X139782861Y-124233278D01*
X139872968Y-124294016D01*
X139950732Y-124374528D01*
X140007726Y-124460791D01*
X140055060Y-124562653D01*
X140085972Y-124655373D01*
X140110702Y-124758078D01*
X140129249Y-124870765D01*
X140141614Y-124993436D01*
X140146830Y-125091991D01*
X140148569Y-125196161D01*
X140148393Y-125232176D01*
X140145760Y-125336059D01*
X140137334Y-125464859D01*
X140123290Y-125582561D01*
X140103628Y-125689166D01*
X140071152Y-125806815D01*
X140029897Y-125907124D01*
X139968806Y-126004605D01*
X139945830Y-126032052D01*
X139871567Y-126103768D01*
X139789301Y-126159547D01*
X139699032Y-126199389D01*
X139600761Y-126223294D01*
X139494487Y-126231263D01*
X139406337Y-126226218D01*
X139308839Y-126206846D01*
X139206507Y-126165884D01*
X139116471Y-126105146D01*
X139038729Y-126024633D01*
X138981735Y-125938299D01*
X138934401Y-125836223D01*
X138903490Y-125743227D01*
X138878760Y-125640157D01*
X138860213Y-125527011D01*
X138847848Y-125403791D01*
X138842632Y-125304764D01*
X138840893Y-125200069D01*
X139244382Y-125200069D01*
X139245008Y-125283036D01*
X139248294Y-125395750D01*
X139254396Y-125494382D01*
X139265075Y-125591654D01*
X139284438Y-125688555D01*
X139310358Y-125762835D01*
X139369434Y-125843893D01*
X139397950Y-125862914D01*
X139494487Y-125887369D01*
X139528467Y-125884713D01*
X139619050Y-125844870D01*
X139674177Y-125769462D01*
X139708932Y-125673412D01*
X139721050Y-125617478D01*
X139733308Y-125519339D01*
X139740378Y-125411377D01*
X139743721Y-125302429D01*
X139744591Y-125200069D01*
X139743965Y-125117195D01*
X139740680Y-125004503D01*
X139734577Y-124905757D01*
X139723898Y-124808177D01*
X139704535Y-124710607D01*
X139678615Y-124636326D01*
X139619539Y-124555268D01*
X139591024Y-124536248D01*
X139494487Y-124511793D01*
X139460537Y-124514510D01*
X139370411Y-124555268D01*
X139314890Y-124631226D01*
X139280041Y-124727704D01*
X139267923Y-124783454D01*
X139255665Y-124881350D01*
X139248596Y-124989097D01*
X139245253Y-125097862D01*
X139244382Y-125200069D01*
X138840893Y-125200069D01*
X138841660Y-125129537D01*
X138845687Y-125028517D01*
X138856426Y-124902748D01*
X138873302Y-124787175D01*
X138896314Y-124681799D01*
X138933709Y-124564420D01*
X138980692Y-124462973D01*
X139037264Y-124377459D01*
X139103645Y-124306242D01*
X139192375Y-124241777D01*
X139293261Y-124197368D01*
X139389409Y-124175266D01*
X139494487Y-124167899D01*
X139582777Y-124172944D01*
G37*
G36*
X138507745Y-126200000D02*
G01*
X138507745Y-125824842D01*
X138121353Y-125824842D01*
X138121353Y-126200000D01*
X138507745Y-126200000D01*
G37*
G36*
X136824424Y-126200000D02*
G01*
X137210327Y-126200000D01*
X137210327Y-124729658D01*
X137292307Y-124805277D01*
X137379611Y-124873135D01*
X137472238Y-124933230D01*
X137570189Y-124985563D01*
X137673463Y-125030134D01*
X137709071Y-125043265D01*
X137709071Y-124668108D01*
X137612157Y-124629392D01*
X137520528Y-124580027D01*
X137435578Y-124524599D01*
X137380809Y-124484438D01*
X137299110Y-124413729D01*
X137231332Y-124337404D01*
X137177477Y-124255460D01*
X137137543Y-124167899D01*
X136824424Y-124167899D01*
X136824424Y-126200000D01*
G37*
G36*
X154090928Y-129560000D02*
G01*
X154090928Y-127527899D01*
X153695254Y-127527899D01*
X152871179Y-128901032D01*
X152871179Y-127527899D01*
X152493579Y-127527899D01*
X152493579Y-129560000D01*
X152901465Y-129560000D01*
X153713328Y-128207383D01*
X153713328Y-129560000D01*
X154090928Y-129560000D01*
G37*
G36*
X151519966Y-128065325D02*
G01*
X151619434Y-128083185D01*
X151713895Y-128112952D01*
X151803349Y-128154626D01*
X151865780Y-128193352D01*
X151948993Y-128262711D01*
X152019687Y-128345594D01*
X152072016Y-128430621D01*
X152104222Y-128498844D01*
X152136798Y-128591199D01*
X152159286Y-128696995D01*
X152166782Y-128804801D01*
X152166412Y-128836069D01*
X152159286Y-128940792D01*
X152143091Y-129038175D01*
X152113476Y-129140482D01*
X152072016Y-129233203D01*
X152033422Y-129296177D01*
X151964068Y-129379498D01*
X151880957Y-129449449D01*
X151795533Y-129500404D01*
X151703271Y-129540155D01*
X151608688Y-129568548D01*
X151511784Y-129585584D01*
X151412561Y-129591263D01*
X151372509Y-129590408D01*
X151257527Y-129577585D01*
X151150309Y-129549375D01*
X151050852Y-129505778D01*
X150959158Y-129446793D01*
X150875226Y-129372421D01*
X150836990Y-129330392D01*
X150771800Y-129240358D01*
X150721654Y-129142356D01*
X150686552Y-129036385D01*
X150666493Y-128922446D01*
X150661321Y-128822386D01*
X151058408Y-128822386D01*
X151060913Y-128893973D01*
X151075338Y-128997051D01*
X151106894Y-129096154D01*
X151160990Y-129185331D01*
X151222282Y-129245545D01*
X151316025Y-129295176D01*
X151414026Y-129309895D01*
X151495144Y-129300042D01*
X151591521Y-129256250D01*
X151668039Y-129185331D01*
X151708200Y-129125361D01*
X151745341Y-129032801D01*
X151764667Y-128935928D01*
X151771109Y-128825317D01*
X151768593Y-128754587D01*
X151754098Y-128652631D01*
X151722392Y-128554425D01*
X151668039Y-128465792D01*
X151606275Y-128405341D01*
X151512142Y-128355516D01*
X151414026Y-128340739D01*
X151332985Y-128350631D01*
X151236952Y-128394595D01*
X151160990Y-128465792D01*
X151121020Y-128525431D01*
X151084054Y-128617222D01*
X151064820Y-128713087D01*
X151058408Y-128822386D01*
X150661321Y-128822386D01*
X150661270Y-128821409D01*
X150663129Y-128760498D01*
X150674489Y-128663445D01*
X150701755Y-128554349D01*
X150743892Y-128453289D01*
X150800902Y-128360267D01*
X150872784Y-128275282D01*
X150913495Y-128236697D01*
X151001227Y-128170911D01*
X151097375Y-128120307D01*
X151201938Y-128084884D01*
X151314915Y-128064643D01*
X151415491Y-128059371D01*
X151519966Y-128065325D01*
G37*
G36*
X149966643Y-129560000D02*
G01*
X150554780Y-128090635D01*
X150149337Y-128090635D01*
X149874808Y-128840460D01*
X149795184Y-129091053D01*
X149764654Y-128997172D01*
X149755129Y-128965024D01*
X149724904Y-128871693D01*
X149714096Y-128840460D01*
X149436636Y-128090635D01*
X149039497Y-128090635D01*
X149619330Y-129560000D01*
X149966643Y-129560000D01*
G37*
G36*
X146811514Y-129184842D02*
G01*
X146811514Y-129560000D01*
X148165108Y-129560000D01*
X148148621Y-129460471D01*
X148121144Y-129363628D01*
X148082676Y-129269473D01*
X148033217Y-129178004D01*
X147974870Y-129093297D01*
X147908523Y-129011723D01*
X147841717Y-128937423D01*
X147764439Y-128857373D01*
X147676691Y-128771576D01*
X147598953Y-128698799D01*
X147522221Y-128627194D01*
X147443178Y-128551310D01*
X147368933Y-128476628D01*
X147301914Y-128402521D01*
X147278506Y-128372002D01*
X147229986Y-128283388D01*
X147202693Y-128188319D01*
X147198883Y-128137529D01*
X147212160Y-128036857D01*
X147259848Y-127949510D01*
X147268248Y-127940669D01*
X147356837Y-127886927D01*
X147459734Y-127871793D01*
X147562359Y-127887678D01*
X147647692Y-127939641D01*
X147652198Y-127944089D01*
X147705857Y-128032904D01*
X147729774Y-128134249D01*
X147734752Y-128184424D01*
X148119678Y-128146322D01*
X148105403Y-128047544D01*
X148078796Y-127941070D01*
X148041850Y-127847750D01*
X147985681Y-127755503D01*
X147915439Y-127681161D01*
X147904256Y-127672002D01*
X147820431Y-127615853D01*
X147727957Y-127573494D01*
X147626834Y-127544927D01*
X147517063Y-127530151D01*
X147450453Y-127527899D01*
X147343194Y-127533532D01*
X147244900Y-127550430D01*
X147141553Y-127584384D01*
X147050408Y-127633671D01*
X146981995Y-127688122D01*
X146915567Y-127761770D01*
X146859628Y-127855154D01*
X146824999Y-127958370D01*
X146812180Y-128056748D01*
X146811514Y-128086238D01*
X146818383Y-128185935D01*
X146838991Y-128282060D01*
X146860362Y-128344159D01*
X146904967Y-128437467D01*
X146959855Y-128526017D01*
X147014724Y-128600614D01*
X147083280Y-128678283D01*
X147155433Y-128750960D01*
X147234492Y-128825943D01*
X147267759Y-128856580D01*
X147341283Y-128924127D01*
X147416992Y-128995310D01*
X147488966Y-129067024D01*
X147499302Y-129078353D01*
X147559932Y-129155485D01*
X147578436Y-129184842D01*
X146811514Y-129184842D01*
G37*
G36*
X145993663Y-127532944D02*
G01*
X146091299Y-127552315D01*
X146193747Y-127593278D01*
X146283854Y-127654016D01*
X146361618Y-127734528D01*
X146418612Y-127820791D01*
X146465946Y-127922653D01*
X146496858Y-128015373D01*
X146521588Y-128118078D01*
X146540135Y-128230765D01*
X146552500Y-128353436D01*
X146557716Y-128451991D01*
X146559455Y-128556161D01*
X146559280Y-128592176D01*
X146556646Y-128696059D01*
X146548220Y-128824859D01*
X146534176Y-128942561D01*
X146514515Y-129049166D01*
X146482038Y-129166815D01*
X146440784Y-129267124D01*
X146379692Y-129364605D01*
X146356716Y-129392052D01*
X146282453Y-129463768D01*
X146200187Y-129519547D01*
X146109919Y-129559389D01*
X146011647Y-129583294D01*
X145905373Y-129591263D01*
X145817224Y-129586218D01*
X145719725Y-129566846D01*
X145617393Y-129525884D01*
X145527357Y-129465146D01*
X145449616Y-129384633D01*
X145392622Y-129298299D01*
X145345288Y-129196223D01*
X145314376Y-129103227D01*
X145289646Y-129000157D01*
X145271099Y-128887011D01*
X145258734Y-128763791D01*
X145253518Y-128664764D01*
X145251779Y-128560069D01*
X145655268Y-128560069D01*
X145655894Y-128643036D01*
X145659180Y-128755750D01*
X145665282Y-128854382D01*
X145675961Y-128951654D01*
X145695324Y-129048555D01*
X145721244Y-129122835D01*
X145780321Y-129203893D01*
X145808836Y-129222914D01*
X145905373Y-129247369D01*
X145939353Y-129244713D01*
X146029937Y-129204870D01*
X146085063Y-129129462D01*
X146119818Y-129033412D01*
X146131937Y-128977478D01*
X146144195Y-128879339D01*
X146151264Y-128771377D01*
X146154607Y-128662429D01*
X146155478Y-128560069D01*
X146154852Y-128477195D01*
X146151566Y-128364503D01*
X146145464Y-128265757D01*
X146134785Y-128168177D01*
X146115422Y-128070607D01*
X146089501Y-127996326D01*
X146030425Y-127915268D01*
X146001910Y-127896248D01*
X145905373Y-127871793D01*
X145871423Y-127874510D01*
X145781297Y-127915268D01*
X145725776Y-127991226D01*
X145690928Y-128087704D01*
X145678809Y-128143454D01*
X145666551Y-128241350D01*
X145659482Y-128349097D01*
X145656139Y-128457862D01*
X145655268Y-128560069D01*
X145251779Y-128560069D01*
X145252546Y-128489537D01*
X145256573Y-128388517D01*
X145267312Y-128262748D01*
X145284188Y-128147175D01*
X145307200Y-128041799D01*
X145344595Y-127924420D01*
X145391578Y-127822973D01*
X145448150Y-127737459D01*
X145514531Y-127666242D01*
X145603262Y-127601777D01*
X145704147Y-127557368D01*
X145800295Y-127535266D01*
X145905373Y-127527899D01*
X145993663Y-127532944D01*
G37*
G36*
X143696929Y-129184842D02*
G01*
X143696929Y-129560000D01*
X145050523Y-129560000D01*
X145034036Y-129460471D01*
X145006559Y-129363628D01*
X144968091Y-129269473D01*
X144918632Y-129178004D01*
X144860285Y-129093297D01*
X144793939Y-129011723D01*
X144727132Y-128937423D01*
X144649854Y-128857373D01*
X144562106Y-128771576D01*
X144484368Y-128698799D01*
X144407637Y-128627194D01*
X144328593Y-128551310D01*
X144254348Y-128476628D01*
X144187330Y-128402521D01*
X144163921Y-128372002D01*
X144115401Y-128283388D01*
X144088108Y-128188319D01*
X144084298Y-128137529D01*
X144097575Y-128036857D01*
X144145263Y-127949510D01*
X144153663Y-127940669D01*
X144242253Y-127886927D01*
X144345150Y-127871793D01*
X144447774Y-127887678D01*
X144533107Y-127939641D01*
X144537613Y-127944089D01*
X144591272Y-128032904D01*
X144615189Y-128134249D01*
X144620167Y-128184424D01*
X145005094Y-128146322D01*
X144990818Y-128047544D01*
X144964211Y-127941070D01*
X144927266Y-127847750D01*
X144871096Y-127755503D01*
X144800855Y-127681161D01*
X144789672Y-127672002D01*
X144705846Y-127615853D01*
X144613372Y-127573494D01*
X144512249Y-127544927D01*
X144402478Y-127530151D01*
X144335868Y-127527899D01*
X144228609Y-127533532D01*
X144130315Y-127550430D01*
X144026968Y-127584384D01*
X143935823Y-127633671D01*
X143867411Y-127688122D01*
X143800983Y-127761770D01*
X143745043Y-127855154D01*
X143710414Y-127958370D01*
X143697595Y-128056748D01*
X143696929Y-128086238D01*
X143703798Y-128185935D01*
X143724406Y-128282060D01*
X143745778Y-128344159D01*
X143790382Y-128437467D01*
X143845270Y-128526017D01*
X143900139Y-128600614D01*
X143968695Y-128678283D01*
X144040849Y-128750960D01*
X144119907Y-128825943D01*
X144153175Y-128856580D01*
X144226698Y-128924127D01*
X144302407Y-128995310D01*
X144374381Y-129067024D01*
X144384717Y-129078353D01*
X144445347Y-129155485D01*
X144463852Y-129184842D01*
X143696929Y-129184842D01*
G37*
G36*
X143510816Y-128811151D02*
G01*
X143510816Y-129153579D01*
X142686741Y-129153579D01*
X142686741Y-129560000D01*
X142313049Y-129560000D01*
X142313049Y-129153579D01*
X142062944Y-129153579D01*
X142062944Y-128809685D01*
X142313049Y-128809685D01*
X142686741Y-128809685D01*
X143149337Y-128809685D01*
X142686741Y-128147299D01*
X142686741Y-128809685D01*
X142313049Y-128809685D01*
X142313049Y-127559162D01*
X142636915Y-127559162D01*
X143510816Y-128811151D01*
G37*
G36*
X177900697Y-49020000D02*
G01*
X177900697Y-46987899D01*
X177292044Y-46987899D01*
X176926657Y-48374221D01*
X176565177Y-46987899D01*
X175955547Y-46987899D01*
X175955547Y-49020000D01*
X176333147Y-49020000D01*
X176333147Y-47420209D01*
X176733217Y-49020000D01*
X177124494Y-49020000D01*
X177523098Y-47420209D01*
X177523098Y-49020000D01*
X177900697Y-49020000D01*
G37*
G36*
X175031641Y-47519761D02*
G01*
X175130068Y-47525600D01*
X175232483Y-47541267D01*
X175333156Y-47570851D01*
X175425540Y-47619023D01*
X175476591Y-47660170D01*
X175541961Y-47736059D01*
X175593885Y-47828949D01*
X175628750Y-47925792D01*
X175278506Y-47988318D01*
X175248670Y-47918777D01*
X175185205Y-47842260D01*
X175125740Y-47813877D01*
X175024005Y-47800739D01*
X175014575Y-47800786D01*
X174909348Y-47809996D01*
X174816887Y-47849099D01*
X174775488Y-47913824D01*
X174761688Y-48011277D01*
X174761688Y-48050844D01*
X174824337Y-48073528D01*
X174919631Y-48100142D01*
X175026396Y-48124773D01*
X175136845Y-48147076D01*
X175149301Y-48149531D01*
X175253118Y-48172788D01*
X175350978Y-48201076D01*
X175444103Y-48238422D01*
X175469985Y-48252214D01*
X175548912Y-48311907D01*
X175609699Y-48389364D01*
X175626727Y-48420715D01*
X175659051Y-48515604D01*
X175668806Y-48613091D01*
X175666776Y-48659566D01*
X175647361Y-48756599D01*
X175601680Y-48852178D01*
X175538869Y-48927187D01*
X175486794Y-48969353D01*
X175396123Y-49016245D01*
X175290382Y-49043508D01*
X175183740Y-49051263D01*
X175136296Y-49049528D01*
X175037271Y-49033869D01*
X174943405Y-49001926D01*
X174894692Y-48977956D01*
X174807698Y-48920791D01*
X174731402Y-48853426D01*
X174717725Y-48900809D01*
X174711022Y-48924585D01*
X174680600Y-49020000D01*
X174299092Y-49020000D01*
X174302236Y-49013448D01*
X174341835Y-48918272D01*
X174368457Y-48823140D01*
X174379769Y-48739975D01*
X174385551Y-48638637D01*
X174387020Y-48537864D01*
X174385731Y-48404996D01*
X174761688Y-48404996D01*
X174763478Y-48485628D01*
X174776831Y-48583782D01*
X174800050Y-48634248D01*
X174868667Y-48704926D01*
X174874599Y-48708923D01*
X174965875Y-48753653D01*
X175067969Y-48769895D01*
X175133342Y-48762064D01*
X175221842Y-48714207D01*
X175253784Y-48677046D01*
X175282414Y-48580851D01*
X175271767Y-48526079D01*
X175206699Y-48451891D01*
X175188562Y-48442097D01*
X175093979Y-48410437D01*
X174996650Y-48388387D01*
X174957823Y-48380350D01*
X174857554Y-48357979D01*
X174761688Y-48332212D01*
X174761688Y-48404996D01*
X174385731Y-48404996D01*
X174382623Y-48084549D01*
X174383078Y-48038501D01*
X174388742Y-47929347D01*
X174402850Y-47830270D01*
X174434403Y-47737236D01*
X174456282Y-47702867D01*
X174527902Y-47631754D01*
X174612212Y-47580921D01*
X174683500Y-47553993D01*
X174783479Y-47532895D01*
X174889931Y-47522317D01*
X174996650Y-47519371D01*
X175031641Y-47519761D01*
G37*
G36*
X173057362Y-47722581D02*
G01*
X173103089Y-47674954D01*
X173188069Y-47606887D01*
X173279361Y-47558267D01*
X173376964Y-47529095D01*
X173480879Y-47519371D01*
X173546008Y-47522402D01*
X173653114Y-47542287D01*
X173751479Y-47580732D01*
X173841101Y-47637736D01*
X173921981Y-47713300D01*
X173962854Y-47764576D01*
X174013945Y-47851965D01*
X174052773Y-47951926D01*
X174079341Y-48064457D01*
X174092113Y-48167835D01*
X174096371Y-48279944D01*
X174093570Y-48368535D01*
X174082190Y-48472212D01*
X174062057Y-48568041D01*
X174026342Y-48672679D01*
X173978022Y-48766016D01*
X173917096Y-48848053D01*
X173871148Y-48895680D01*
X173785303Y-48963747D01*
X173692538Y-49012367D01*
X173592855Y-49041539D01*
X173486252Y-49051263D01*
X173432276Y-49048387D01*
X173332532Y-49027792D01*
X173241032Y-48991179D01*
X173175164Y-48952006D01*
X173095274Y-48883909D01*
X173030006Y-48805554D01*
X173030006Y-49020000D01*
X172671458Y-49020000D01*
X172671458Y-48296064D01*
X173056385Y-48296064D01*
X173058674Y-48367073D01*
X173071864Y-48468731D01*
X173100715Y-48565507D01*
X173150174Y-48651193D01*
X173186553Y-48691533D01*
X173274918Y-48750304D01*
X173376343Y-48769895D01*
X173386772Y-48769740D01*
X173483038Y-48751193D01*
X173572071Y-48695088D01*
X173637683Y-48611625D01*
X173662807Y-48557279D01*
X173687995Y-48457178D01*
X173699077Y-48358068D01*
X173702163Y-48257473D01*
X173700713Y-48202336D01*
X173689111Y-48102684D01*
X173662192Y-48007510D01*
X173609351Y-47915533D01*
X173566618Y-47870804D01*
X173475971Y-47816882D01*
X173379274Y-47800739D01*
X173319751Y-47806302D01*
X173222233Y-47846153D01*
X173147243Y-47916999D01*
X173107493Y-47984105D01*
X173076349Y-48081640D01*
X173060732Y-48187932D01*
X173056385Y-48296064D01*
X172671458Y-48296064D01*
X172671458Y-46987899D01*
X173057362Y-46987899D01*
X173057362Y-47722581D01*
G37*
G36*
X171779212Y-47520179D02*
G01*
X171882126Y-47532286D01*
X171977965Y-47558922D01*
X172066728Y-47600086D01*
X172148416Y-47655779D01*
X172223028Y-47726001D01*
X172267450Y-47780009D01*
X172322977Y-47870295D01*
X172365177Y-47971709D01*
X172394052Y-48084252D01*
X172407933Y-48186538D01*
X172412561Y-48296552D01*
X172407494Y-48407183D01*
X172392296Y-48510463D01*
X172366965Y-48606393D01*
X172324607Y-48709022D01*
X172268457Y-48801646D01*
X172206524Y-48873557D01*
X172119420Y-48943762D01*
X172018373Y-48996415D01*
X171923514Y-49026886D01*
X171818971Y-49045168D01*
X171704745Y-49051263D01*
X171603455Y-49046307D01*
X171497141Y-49028508D01*
X171400901Y-48997764D01*
X171304675Y-48947704D01*
X171247614Y-48905354D01*
X171173356Y-48829336D01*
X171112700Y-48738326D01*
X171070202Y-48644842D01*
X171455129Y-48582316D01*
X171483201Y-48648697D01*
X171548918Y-48725443D01*
X171603683Y-48754224D01*
X171700837Y-48769895D01*
X171749300Y-48766426D01*
X171843699Y-48735108D01*
X171923586Y-48671221D01*
X171974943Y-48594031D01*
X172006097Y-48498140D01*
X172016887Y-48394738D01*
X171049685Y-48394738D01*
X171049359Y-48367179D01*
X171051897Y-48261418D01*
X171063202Y-48144633D01*
X171433147Y-48144633D01*
X172010048Y-48144633D01*
X172006669Y-48078332D01*
X171982168Y-47979357D01*
X171928960Y-47893063D01*
X171907642Y-47871425D01*
X171822331Y-47818411D01*
X171720376Y-47800739D01*
X171698525Y-47801512D01*
X171598669Y-47828560D01*
X171519609Y-47888667D01*
X171475693Y-47951235D01*
X171443269Y-48047222D01*
X171433147Y-48144633D01*
X171063202Y-48144633D01*
X171063720Y-48139285D01*
X171085156Y-48028338D01*
X171116203Y-47928577D01*
X171166149Y-47823631D01*
X171229937Y-47734794D01*
X171266406Y-47696295D01*
X171346582Y-47630659D01*
X171436410Y-47580169D01*
X171535890Y-47544827D01*
X171645020Y-47524631D01*
X171743335Y-47519371D01*
X171779212Y-47520179D01*
G37*
G36*
X169693161Y-49020000D02*
G01*
X170154780Y-47550635D01*
X169779623Y-47550635D01*
X169506071Y-48513440D01*
X169254501Y-47550635D01*
X168882274Y-47550635D01*
X168639009Y-48513440D01*
X168360572Y-47550635D01*
X167979553Y-47550635D01*
X168448499Y-49020000D01*
X168819260Y-49020000D01*
X169070830Y-48074780D01*
X169318004Y-49020000D01*
X169693161Y-49020000D01*
G37*
G36*
X167788555Y-47331793D02*
G01*
X167788555Y-46987899D01*
X167402163Y-46987899D01*
X167402163Y-47331793D01*
X167788555Y-47331793D01*
G37*
G36*
X167788555Y-49020000D02*
G01*
X167788555Y-47550635D01*
X167402163Y-47550635D01*
X167402163Y-49020000D01*
X167788555Y-49020000D01*
G37*
G36*
X166341660Y-47550635D02*
G01*
X166341660Y-47832002D01*
X166605443Y-47832002D01*
X166605443Y-48469965D01*
X166604727Y-48575380D01*
X166600970Y-48674291D01*
X166598115Y-48696133D01*
X166563433Y-48749378D01*
X166498464Y-48769895D01*
X166401954Y-48752348D01*
X166343126Y-48732770D01*
X166309909Y-49000460D01*
X166406755Y-49029384D01*
X166511913Y-49046301D01*
X166614724Y-49051263D01*
X166714131Y-49042226D01*
X166803279Y-49015115D01*
X166890520Y-48961725D01*
X166926378Y-48921814D01*
X166967360Y-48829340D01*
X166980600Y-48766964D01*
X166989759Y-48662306D01*
X166992382Y-48561050D01*
X166992812Y-48487062D01*
X166992812Y-47832002D01*
X167170132Y-47832002D01*
X167170132Y-47550635D01*
X166992812Y-47550635D01*
X166992812Y-47269267D01*
X166605443Y-47050425D01*
X166605443Y-47550635D01*
X166341660Y-47550635D01*
G37*
G36*
X165693928Y-46987899D02*
G01*
X165693928Y-47727466D01*
X165621377Y-47656747D01*
X165530222Y-47592733D01*
X165432054Y-47548635D01*
X165326874Y-47524452D01*
X165247452Y-47519371D01*
X165143454Y-47527595D01*
X165048162Y-47552264D01*
X165007117Y-47569197D01*
X164918417Y-47621919D01*
X164849358Y-47691406D01*
X164845917Y-47696203D01*
X164797957Y-47783033D01*
X164771667Y-47867662D01*
X164757976Y-47969643D01*
X164752598Y-48077713D01*
X164751639Y-48159288D01*
X164751639Y-49020000D01*
X165137543Y-49020000D01*
X165137543Y-48234515D01*
X165138917Y-48128422D01*
X165144498Y-48025773D01*
X165159525Y-47938004D01*
X165214444Y-47855345D01*
X165237194Y-47837864D01*
X165331629Y-47803676D01*
X165376413Y-47800739D01*
X165478182Y-47815886D01*
X165548360Y-47848611D01*
X165620711Y-47917218D01*
X165659246Y-47991737D01*
X165682955Y-48093090D01*
X165692269Y-48197388D01*
X165693928Y-48275059D01*
X165693928Y-49020000D01*
X166079832Y-49020000D01*
X166079832Y-46987899D01*
X165693928Y-46987899D01*
G37*
G36*
X162281856Y-48801158D02*
G01*
X163662805Y-48200321D01*
X163662805Y-47867662D01*
X162281856Y-47269267D01*
X162281856Y-47613161D01*
X163245150Y-48027397D01*
X162281856Y-48457264D01*
X162281856Y-48801158D01*
G37*
G36*
X162053733Y-48443098D02*
G01*
X161680041Y-48394738D01*
X161660516Y-48490755D01*
X161619133Y-48582500D01*
X161583810Y-48627257D01*
X161503238Y-48684759D01*
X161408069Y-48707056D01*
X161394277Y-48707369D01*
X161297185Y-48689884D01*
X161214492Y-48637431D01*
X161193510Y-48616022D01*
X161140375Y-48531241D01*
X161115371Y-48434235D01*
X161111444Y-48369337D01*
X161122504Y-48267945D01*
X161159446Y-48177329D01*
X161190090Y-48136817D01*
X161270876Y-48075108D01*
X161366689Y-48051180D01*
X161380600Y-48050844D01*
X161478932Y-48061004D01*
X161557920Y-48079665D01*
X161515422Y-47769476D01*
X161416450Y-47763966D01*
X161322256Y-47736320D01*
X161276552Y-47707927D01*
X161214637Y-47631723D01*
X161193998Y-47534026D01*
X161215352Y-47437652D01*
X161254570Y-47386992D01*
X161345513Y-47339555D01*
X161415282Y-47331793D01*
X161512127Y-47349853D01*
X161584298Y-47395785D01*
X161643077Y-47479938D01*
X161669295Y-47581898D01*
X162024912Y-47525722D01*
X162001054Y-47426709D01*
X161967566Y-47330653D01*
X161922244Y-47241961D01*
X161913049Y-47227745D01*
X161848683Y-47150580D01*
X161767694Y-47086878D01*
X161704466Y-47051891D01*
X161608359Y-47015458D01*
X161504749Y-46994148D01*
X161404047Y-46987899D01*
X161301402Y-46994133D01*
X161191677Y-47017164D01*
X161092752Y-47057165D01*
X161004625Y-47114136D01*
X160948290Y-47165219D01*
X160879811Y-47249841D01*
X160833744Y-47340490D01*
X160810087Y-47437168D01*
X160806629Y-47493482D01*
X160820490Y-47601937D01*
X160862074Y-47700342D01*
X160931380Y-47788695D01*
X161012851Y-47856427D01*
X161096301Y-47907229D01*
X160994997Y-47940250D01*
X160907242Y-47991684D01*
X160833034Y-48061531D01*
X160819818Y-48077711D01*
X160764949Y-48165533D01*
X160730402Y-48264137D01*
X160716685Y-48362098D01*
X160715771Y-48396692D01*
X160722588Y-48495725D01*
X160747776Y-48604144D01*
X160791524Y-48704896D01*
X160853831Y-48797981D01*
X160909699Y-48859776D01*
X160985588Y-48924852D01*
X161082590Y-48983756D01*
X161188709Y-49024335D01*
X161286923Y-49044531D01*
X161391835Y-49051263D01*
X161490971Y-49045355D01*
X161598381Y-49023530D01*
X161696909Y-48985622D01*
X161786555Y-48931633D01*
X161845150Y-48883224D01*
X161916573Y-48804561D01*
X161973551Y-48716034D01*
X162016083Y-48617642D01*
X162044169Y-48509387D01*
X162053733Y-48443098D01*
G37*
G36*
X177889951Y-52380000D02*
G01*
X177889951Y-50347899D01*
X177483042Y-50347899D01*
X177483042Y-51246224D01*
X176661409Y-50347899D01*
X176114794Y-50347899D01*
X176872923Y-51139246D01*
X176073761Y-52380000D01*
X176599860Y-52380000D01*
X177153314Y-51433803D01*
X177483042Y-51768904D01*
X177483042Y-52380000D01*
X177889951Y-52380000D01*
G37*
G36*
X175874947Y-52380000D02*
G01*
X175874947Y-50347899D01*
X174381646Y-50347899D01*
X174381646Y-50691793D01*
X175468039Y-50691793D01*
X175468039Y-51129476D01*
X174456873Y-51129476D01*
X174456873Y-51473370D01*
X175468039Y-51473370D01*
X175468039Y-52036106D01*
X174343056Y-52036106D01*
X174343056Y-52380000D01*
X175874947Y-52380000D01*
G37*
G36*
X173479902Y-52380000D02*
G01*
X173479902Y-51524661D01*
X174217515Y-50347899D01*
X173740753Y-50347899D01*
X173266922Y-51162693D01*
X172802861Y-50347899D01*
X172333914Y-50347899D01*
X173074459Y-51527592D01*
X173074459Y-52380000D01*
X173479902Y-52380000D01*
G37*
G36*
X172141451Y-52380000D02*
G01*
X171735031Y-52380000D01*
X171735031Y-51535896D01*
X171652477Y-51535896D01*
X171643789Y-51535918D01*
X171544298Y-51540197D01*
X171447801Y-51558367D01*
X171404279Y-51578317D01*
X171325680Y-51641409D01*
X171290662Y-51682167D01*
X171229458Y-51763254D01*
X171166550Y-51852235D01*
X171111235Y-51933035D01*
X170817166Y-52380000D01*
X170330635Y-52380000D01*
X170576831Y-51984326D01*
X170629324Y-51900566D01*
X170685270Y-51815695D01*
X170742225Y-51735645D01*
X170808374Y-51655087D01*
X170860130Y-51604078D01*
X170940558Y-51539792D01*
X171025750Y-51484605D01*
X170993111Y-51479291D01*
X170887019Y-51453929D01*
X170793597Y-51418049D01*
X170702342Y-51364163D01*
X170627634Y-51296538D01*
X170569290Y-51217037D01*
X170527616Y-51127522D01*
X170502612Y-51027993D01*
X170495652Y-50936524D01*
X170913398Y-50936524D01*
X170917453Y-50989180D01*
X170954919Y-51084535D01*
X170983665Y-51118090D01*
X171068736Y-51168066D01*
X171127066Y-51179637D01*
X171232662Y-51188052D01*
X171332126Y-51191161D01*
X171434124Y-51192002D01*
X171735031Y-51192002D01*
X171735031Y-50691793D01*
X171417515Y-50691793D01*
X171318843Y-50692120D01*
X171219801Y-50693503D01*
X171121004Y-50698632D01*
X171047852Y-50719146D01*
X170967620Y-50775812D01*
X170930554Y-50836627D01*
X170913398Y-50936524D01*
X170495652Y-50936524D01*
X170494277Y-50918450D01*
X170494621Y-50896016D01*
X170506642Y-50788597D01*
X170535837Y-50689097D01*
X170582205Y-50597515D01*
X170642884Y-50518241D01*
X170722854Y-50450324D01*
X170816678Y-50402609D01*
X170866638Y-50386848D01*
X170964533Y-50367187D01*
X171068324Y-50355593D01*
X171170757Y-50349822D01*
X171285624Y-50347899D01*
X172141451Y-50347899D01*
X172141451Y-52380000D01*
G37*
G36*
X177168457Y-53707899D02*
G01*
X176763014Y-53707899D01*
X176763014Y-54992128D01*
X176765118Y-55096817D01*
X176772674Y-55202780D01*
X176787744Y-55304545D01*
X176806978Y-55379497D01*
X176847838Y-55473714D01*
X176903921Y-55556880D01*
X176975229Y-55628995D01*
X177021423Y-55664284D01*
X177116606Y-55715997D01*
X177214319Y-55747757D01*
X177324365Y-55766144D01*
X177430774Y-55771263D01*
X177537856Y-55765406D01*
X177635251Y-55747838D01*
X177736638Y-55712539D01*
X177824841Y-55661298D01*
X177889951Y-55604689D01*
X177952642Y-55524143D01*
X178000093Y-55428683D01*
X178028635Y-55334991D01*
X178045980Y-55230343D01*
X178052128Y-55114738D01*
X177668667Y-55083475D01*
X177659578Y-55187678D01*
X177635322Y-55286573D01*
X177617864Y-55321856D01*
X177546978Y-55393984D01*
X177449726Y-55425720D01*
X177417096Y-55427369D01*
X177319901Y-55414470D01*
X177236354Y-55363179D01*
X177225122Y-55349211D01*
X177188434Y-55257497D01*
X177172940Y-55149095D01*
X177168513Y-55038675D01*
X177168457Y-55023391D01*
X177168457Y-53707899D01*
G37*
G36*
X176339497Y-55740000D02*
G01*
X175574040Y-55740000D01*
X175519154Y-55739328D01*
X175417854Y-55733954D01*
X175317395Y-55721487D01*
X175214026Y-55697013D01*
X175191844Y-55689567D01*
X175099155Y-55651623D01*
X175009854Y-55600942D01*
X174928262Y-55534836D01*
X174919563Y-55526174D01*
X174854541Y-55450940D01*
X174797640Y-55365142D01*
X174748860Y-55268780D01*
X174712840Y-55175799D01*
X174705327Y-55152815D01*
X174680125Y-55055499D01*
X174662676Y-54949574D01*
X174653771Y-54849827D01*
X174650802Y-54743489D01*
X174651082Y-54724438D01*
X175071388Y-54724438D01*
X175072037Y-54781758D01*
X175077227Y-54887149D01*
X175089270Y-54990971D01*
X175112909Y-55096664D01*
X175120818Y-55121544D01*
X175160048Y-55213778D01*
X175219399Y-55292547D01*
X175287713Y-55340446D01*
X175383042Y-55376566D01*
X175420702Y-55384180D01*
X175523231Y-55393797D01*
X175629239Y-55396106D01*
X175932588Y-55396106D01*
X175932588Y-54051793D01*
X175749895Y-54051793D01*
X175734515Y-54051812D01*
X175622980Y-54053339D01*
X175521953Y-54057975D01*
X175416259Y-54071332D01*
X175409155Y-54072934D01*
X175312090Y-54107725D01*
X175228192Y-54167076D01*
X175210149Y-54185531D01*
X175151731Y-54270239D01*
X175112909Y-54363447D01*
X175100948Y-54405490D01*
X175083107Y-54505535D01*
X175073983Y-54613765D01*
X175071388Y-54724438D01*
X174651082Y-54724438D01*
X174651832Y-54673475D01*
X174657242Y-54573807D01*
X174669414Y-54465645D01*
X174687896Y-54366225D01*
X174716748Y-54263307D01*
X174738834Y-54203878D01*
X174786044Y-54104359D01*
X174842836Y-54014422D01*
X174909211Y-53934068D01*
X174949976Y-53893940D01*
X175029544Y-53831806D01*
X175117073Y-53782656D01*
X175212561Y-53746489D01*
X175285986Y-53729606D01*
X175386471Y-53716378D01*
X175491687Y-53709746D01*
X175596022Y-53707899D01*
X176339497Y-53707899D01*
X176339497Y-55740000D01*
G37*
G36*
X177890928Y-59100000D02*
G01*
X177890928Y-57067899D01*
X177495254Y-57067899D01*
X176671179Y-58441032D01*
X176671179Y-57067899D01*
X176293579Y-57067899D01*
X176293579Y-59100000D01*
X176701465Y-59100000D01*
X177513328Y-57747383D01*
X177513328Y-59100000D01*
X177890928Y-59100000D01*
G37*
G36*
X175874947Y-59100000D02*
G01*
X175874947Y-57067899D01*
X174381646Y-57067899D01*
X174381646Y-57411793D01*
X175468039Y-57411793D01*
X175468039Y-57849476D01*
X174456873Y-57849476D01*
X174456873Y-58193370D01*
X175468039Y-58193370D01*
X175468039Y-58756106D01*
X174343056Y-58756106D01*
X174343056Y-59100000D01*
X175874947Y-59100000D01*
G37*
G36*
X174112002Y-58443475D02*
G01*
X173716329Y-58412212D01*
X173690474Y-58512907D01*
X173648152Y-58605758D01*
X173585067Y-58684752D01*
X173571737Y-58696510D01*
X173487506Y-58748239D01*
X173385265Y-58778496D01*
X173276692Y-58787369D01*
X173173884Y-58780916D01*
X173077599Y-58758610D01*
X172986992Y-58710810D01*
X172980669Y-58705792D01*
X172912549Y-58628748D01*
X172881894Y-58534581D01*
X172881018Y-58514305D01*
X172906659Y-58417216D01*
X172923028Y-58394626D01*
X173004883Y-58335341D01*
X173069085Y-58308653D01*
X173166792Y-58278760D01*
X173266436Y-58251445D01*
X173363865Y-58225820D01*
X173394905Y-58217794D01*
X173492271Y-58190808D01*
X173596547Y-58156095D01*
X173687119Y-58118841D01*
X173775466Y-58072165D01*
X173853593Y-58014584D01*
X173925922Y-57937538D01*
X173980485Y-57853432D01*
X174017284Y-57762267D01*
X174036318Y-57664042D01*
X174039218Y-57604745D01*
X174028944Y-57500316D01*
X173998120Y-57400621D01*
X173952267Y-57314096D01*
X173890129Y-57235566D01*
X173813011Y-57169725D01*
X173720914Y-57116574D01*
X173700697Y-57107466D01*
X173602766Y-57073227D01*
X173506764Y-57052199D01*
X173402335Y-57040025D01*
X173304047Y-57036636D01*
X173190169Y-57040798D01*
X173085450Y-57053285D01*
X172989890Y-57074095D01*
X172887308Y-57110056D01*
X172797915Y-57158004D01*
X172733496Y-57207117D01*
X172658225Y-57287149D01*
X172600393Y-57378074D01*
X172559998Y-57479891D01*
X172539252Y-57575833D01*
X172531751Y-57661898D01*
X172938660Y-57661898D01*
X172966526Y-57561308D01*
X173020395Y-57473993D01*
X173050523Y-57446475D01*
X173142206Y-57401395D01*
X173246986Y-57382848D01*
X173308443Y-57380530D01*
X173411521Y-57387495D01*
X173507717Y-57411244D01*
X173585903Y-57451849D01*
X173645283Y-57534006D01*
X173650383Y-57574947D01*
X173616311Y-57668462D01*
X173589811Y-57694626D01*
X173501311Y-57743559D01*
X173407888Y-57777631D01*
X173303553Y-57808395D01*
X173216120Y-57830914D01*
X173110189Y-57858128D01*
X173015146Y-57885548D01*
X172918024Y-57917798D01*
X172825173Y-57955000D01*
X172776971Y-57978436D01*
X172694186Y-58030844D01*
X172617117Y-58100944D01*
X172554710Y-58184089D01*
X172508821Y-58280972D01*
X172483634Y-58381569D01*
X172474425Y-58482304D01*
X172474110Y-58506001D01*
X172483507Y-58612542D01*
X172511700Y-58714790D01*
X172558688Y-58812745D01*
X172570341Y-58831821D01*
X172630770Y-58911093D01*
X172703795Y-58978000D01*
X172789417Y-59032543D01*
X172842428Y-59057501D01*
X172935759Y-59089772D01*
X173039898Y-59112822D01*
X173139886Y-59125428D01*
X173248148Y-59130974D01*
X173280600Y-59131263D01*
X173395644Y-59126981D01*
X173502031Y-59114137D01*
X173599759Y-59092730D01*
X173705604Y-59055739D01*
X173798981Y-59006417D01*
X173867271Y-58955896D01*
X173938237Y-58884301D01*
X173997628Y-58801405D01*
X174045444Y-58707209D01*
X174081686Y-58601714D01*
X174103045Y-58505168D01*
X174112002Y-58443475D01*
G37*
G36*
X172141451Y-59100000D02*
G01*
X172141451Y-57067899D01*
X171735031Y-57067899D01*
X171735031Y-57880739D01*
X170937822Y-57880739D01*
X170937822Y-57067899D01*
X170531402Y-57067899D01*
X170531402Y-59100000D01*
X170937822Y-59100000D01*
X170937822Y-58224633D01*
X171735031Y-58224633D01*
X171735031Y-59100000D01*
X172141451Y-59100000D01*
G37*
G36*
X169261544Y-57036949D02*
G01*
X169364743Y-57042973D01*
X169462473Y-57056664D01*
X169567467Y-57081699D01*
X169665317Y-57116748D01*
X169674119Y-57120534D01*
X169768105Y-57170374D01*
X169849039Y-57228706D01*
X169925680Y-57299441D01*
X169940323Y-57314893D01*
X170007700Y-57395932D01*
X170065345Y-57483268D01*
X170113258Y-57576901D01*
X170149042Y-57673543D01*
X170176036Y-57779674D01*
X170192179Y-57878198D01*
X170201865Y-57983693D01*
X170205094Y-58096161D01*
X170204835Y-58126184D01*
X170198618Y-58242218D01*
X170184112Y-58351765D01*
X170161317Y-58454824D01*
X170130234Y-58551395D01*
X170079723Y-58662986D01*
X170016260Y-58764440D01*
X169939846Y-58855757D01*
X169852460Y-58935126D01*
X169756082Y-59001043D01*
X169650712Y-59053507D01*
X169536349Y-59092520D01*
X169438385Y-59114043D01*
X169334666Y-59126958D01*
X169225191Y-59131263D01*
X169117091Y-59126935D01*
X169014562Y-59113952D01*
X168917606Y-59092313D01*
X168804245Y-59053094D01*
X168699590Y-59000350D01*
X168603642Y-58934083D01*
X168516399Y-58854291D01*
X168484279Y-58818836D01*
X168413045Y-58722901D01*
X168354763Y-58616544D01*
X168317463Y-58523953D01*
X168288451Y-58424691D01*
X168267729Y-58318758D01*
X168255295Y-58206155D01*
X168251151Y-58086880D01*
X168251318Y-58077110D01*
X168671737Y-58077110D01*
X168671889Y-58099133D01*
X168677215Y-58204050D01*
X168693650Y-58318522D01*
X168721042Y-58420525D01*
X168766846Y-58523772D01*
X168827564Y-58610048D01*
X168847384Y-58631521D01*
X168922133Y-58695765D01*
X169017808Y-58748407D01*
X169124412Y-58778884D01*
X169226657Y-58787369D01*
X169256733Y-58786670D01*
X169356771Y-58773226D01*
X169461139Y-58736911D01*
X169554882Y-58678246D01*
X169628192Y-58608583D01*
X169647298Y-58585519D01*
X169704463Y-58494488D01*
X169741443Y-58403698D01*
X169767329Y-58301127D01*
X169782121Y-58186776D01*
X169785973Y-58082484D01*
X169785823Y-58060645D01*
X169780563Y-57956643D01*
X169764335Y-57843271D01*
X169737287Y-57742366D01*
X169692056Y-57640402D01*
X169632100Y-57555408D01*
X169612484Y-57534231D01*
X169526389Y-57463187D01*
X169428081Y-57414003D01*
X169332044Y-57388898D01*
X169226657Y-57380530D01*
X169195659Y-57381205D01*
X169093267Y-57394208D01*
X168987869Y-57429334D01*
X168894866Y-57486074D01*
X168823656Y-57553454D01*
X168814310Y-57564406D01*
X168757192Y-57650846D01*
X168714613Y-57754396D01*
X168689688Y-57856772D01*
X168675446Y-57971719D01*
X168671737Y-58077110D01*
X168251318Y-58077110D01*
X168252195Y-58025875D01*
X168260545Y-57908959D01*
X168277245Y-57798836D01*
X168302295Y-57695506D01*
X168335695Y-57598969D01*
X168377445Y-57509225D01*
X168441376Y-57406598D01*
X168518353Y-57314584D01*
X168606206Y-57234511D01*
X168702765Y-57168010D01*
X168808031Y-57115080D01*
X168922002Y-57075722D01*
X169019447Y-57054008D01*
X169122464Y-57040979D01*
X169231053Y-57036636D01*
X169261544Y-57036949D01*
G37*
G36*
X177366294Y-62460000D02*
G01*
X177366294Y-61604661D01*
X178103907Y-60427899D01*
X177627145Y-60427899D01*
X177153314Y-61242693D01*
X176689253Y-60427899D01*
X176220307Y-60427899D01*
X176960851Y-61607592D01*
X176960851Y-62460000D01*
X177366294Y-62460000D01*
G37*
G36*
X176029309Y-62460000D02*
G01*
X176029309Y-60427899D01*
X174536008Y-60427899D01*
X174536008Y-60771793D01*
X175622400Y-60771793D01*
X175622400Y-61209476D01*
X174611235Y-61209476D01*
X174611235Y-61553370D01*
X175622400Y-61553370D01*
X175622400Y-62116106D01*
X174497418Y-62116106D01*
X174497418Y-62460000D01*
X176029309Y-62460000D01*
G37*
G36*
X174160362Y-62460000D02*
G01*
X174160362Y-60427899D01*
X172779902Y-60427899D01*
X172779902Y-60771793D01*
X173753942Y-60771793D01*
X173753942Y-61240739D01*
X172913258Y-61240739D01*
X172913258Y-61584633D01*
X173753942Y-61584633D01*
X173753942Y-62460000D01*
X174160362Y-62460000D01*
G37*
G36*
X172450662Y-62460000D02*
G01*
X172450662Y-60427899D01*
X171070202Y-60427899D01*
X171070202Y-60771793D01*
X172044242Y-60771793D01*
X172044242Y-61240739D01*
X171203558Y-61240739D01*
X171203558Y-61584633D01*
X172044242Y-61584633D01*
X172044242Y-62460000D01*
X172450662Y-62460000D01*
G37*
G36*
X170742428Y-62460000D02*
G01*
X170336008Y-62460000D01*
X170336008Y-61615896D01*
X170253454Y-61615896D01*
X170244766Y-61615918D01*
X170145275Y-61620197D01*
X170048778Y-61638367D01*
X170005256Y-61658317D01*
X169926657Y-61721409D01*
X169891639Y-61762167D01*
X169830435Y-61843254D01*
X169767527Y-61932235D01*
X169712212Y-62013035D01*
X169418143Y-62460000D01*
X168931612Y-62460000D01*
X169177808Y-62064326D01*
X169230301Y-61980566D01*
X169286247Y-61895695D01*
X169343202Y-61815645D01*
X169409351Y-61735087D01*
X169461107Y-61684078D01*
X169541535Y-61619792D01*
X169626727Y-61564605D01*
X169594088Y-61559291D01*
X169487996Y-61533929D01*
X169394574Y-61498049D01*
X169303319Y-61444163D01*
X169228611Y-61376538D01*
X169170267Y-61297037D01*
X169128593Y-61207522D01*
X169103589Y-61107993D01*
X169096629Y-61016524D01*
X169514375Y-61016524D01*
X169518430Y-61069180D01*
X169555896Y-61164535D01*
X169584642Y-61198090D01*
X169669713Y-61248066D01*
X169728043Y-61259637D01*
X169833639Y-61268052D01*
X169933103Y-61271161D01*
X170035101Y-61272002D01*
X170336008Y-61272002D01*
X170336008Y-60771793D01*
X170018492Y-60771793D01*
X169919820Y-60772120D01*
X169820778Y-60773503D01*
X169721981Y-60778632D01*
X169648829Y-60799146D01*
X169568597Y-60855812D01*
X169531531Y-60916627D01*
X169514375Y-61016524D01*
X169096629Y-61016524D01*
X169095254Y-60998450D01*
X169095598Y-60976016D01*
X169107619Y-60868597D01*
X169136814Y-60769097D01*
X169183182Y-60677515D01*
X169243861Y-60598241D01*
X169323831Y-60530324D01*
X169417655Y-60482609D01*
X169467615Y-60466848D01*
X169565510Y-60447187D01*
X169669301Y-60435593D01*
X169771734Y-60429822D01*
X169886601Y-60427899D01*
X170742428Y-60427899D01*
X170742428Y-62460000D01*
G37*
G36*
X168735729Y-62460000D02*
G01*
X168735729Y-60427899D01*
X168329309Y-60427899D01*
X168329309Y-62460000D01*
X168735729Y-62460000D01*
G37*
G36*
X167951221Y-62460000D02*
G01*
X167951221Y-60427899D01*
X167342568Y-60427899D01*
X166977180Y-61814221D01*
X166615701Y-60427899D01*
X166006071Y-60427899D01*
X166006071Y-62460000D01*
X166383670Y-62460000D01*
X166383670Y-60860209D01*
X166783740Y-62460000D01*
X167175017Y-62460000D01*
X167573621Y-60860209D01*
X167573621Y-62460000D01*
X167951221Y-62460000D01*
G37*
G36*
X165627006Y-62460000D02*
G01*
X165627006Y-60427899D01*
X165220586Y-60427899D01*
X165220586Y-62460000D01*
X165627006Y-62460000D01*
G37*
G36*
X163548499Y-61678422D02*
G01*
X163154291Y-61803475D01*
X163185618Y-61903397D01*
X163222813Y-61994948D01*
X163275191Y-62093757D01*
X163336019Y-62180511D01*
X163405297Y-62255210D01*
X163456175Y-62298311D01*
X163539128Y-62353260D01*
X163630084Y-62396840D01*
X163729042Y-62429051D01*
X163836004Y-62449894D01*
X163950967Y-62459368D01*
X163991067Y-62460000D01*
X164089100Y-62455756D01*
X164205373Y-62438516D01*
X164314681Y-62408014D01*
X164417025Y-62364251D01*
X164512404Y-62307226D01*
X164600818Y-62236939D01*
X164650523Y-62188401D01*
X164724826Y-62098661D01*
X164786536Y-61999190D01*
X164835651Y-61889986D01*
X164865876Y-61795617D01*
X164888041Y-61695019D01*
X164902146Y-61588194D01*
X164908191Y-61475140D01*
X164908443Y-61445903D01*
X164904390Y-61324820D01*
X164892232Y-61210697D01*
X164871967Y-61103536D01*
X164843597Y-61003335D01*
X164807121Y-60910095D01*
X164750127Y-60803335D01*
X164680467Y-60707450D01*
X164649057Y-60672142D01*
X164563863Y-60592772D01*
X164470703Y-60526856D01*
X164369576Y-60474391D01*
X164260482Y-60435379D01*
X164143422Y-60409819D01*
X164044038Y-60399057D01*
X163966154Y-60396636D01*
X163853996Y-60402289D01*
X163748635Y-60419247D01*
X163650072Y-60447512D01*
X163558307Y-60487082D01*
X163473340Y-60537958D01*
X163395170Y-60600140D01*
X163365806Y-60628178D01*
X163301448Y-60704260D01*
X163245638Y-60795240D01*
X163203817Y-60887070D01*
X163168541Y-60990306D01*
X163159665Y-61021898D01*
X163562177Y-61084424D01*
X163595870Y-60982850D01*
X163647919Y-60897091D01*
X163711165Y-60832854D01*
X163794851Y-60780290D01*
X163890080Y-60749546D01*
X163986671Y-60740530D01*
X164093283Y-60750483D01*
X164189392Y-60780341D01*
X164275000Y-60830106D01*
X164350104Y-60899776D01*
X164411012Y-60991764D01*
X164450031Y-61092540D01*
X164472872Y-61193988D01*
X164485924Y-61309347D01*
X164489323Y-61416106D01*
X164485971Y-61529092D01*
X164475918Y-61631440D01*
X164455006Y-61740216D01*
X164424444Y-61833673D01*
X164376589Y-61923345D01*
X164352058Y-61955394D01*
X164278266Y-62025705D01*
X164194155Y-62075928D01*
X164099725Y-62106061D01*
X163994975Y-62116106D01*
X163888846Y-62103638D01*
X163793454Y-62066234D01*
X163716050Y-62010593D01*
X163649522Y-61932817D01*
X163600660Y-61842588D01*
X163565985Y-61746295D01*
X163548499Y-61678422D01*
G37*
D11*
G36*
X119626476Y-71499509D02*
G01*
X119682059Y-71501810D01*
X119702494Y-71503741D01*
X119718956Y-71506261D01*
X119732141Y-71509422D01*
X119742748Y-71513275D01*
X119751473Y-71517873D01*
X119759016Y-71523266D01*
X119773340Y-71536647D01*
X119776733Y-71540196D01*
X119779979Y-71543971D01*
X119783094Y-71548086D01*
X119786098Y-71552654D01*
X119789007Y-71557787D01*
X119791840Y-71563600D01*
X119794613Y-71570204D01*
X119797346Y-71577714D01*
X119800056Y-71586241D01*
X119802760Y-71595900D01*
X119805476Y-71606802D01*
X119808222Y-71619062D01*
X119811017Y-71632792D01*
X119813876Y-71648105D01*
X119816819Y-71665114D01*
X119819863Y-71683933D01*
X119826326Y-71727451D01*
X119833406Y-71779562D01*
X119841245Y-71841172D01*
X119849987Y-71913184D01*
X119859772Y-71996503D01*
X119870743Y-72092033D01*
X119896811Y-72323344D01*
X119931170Y-72620066D01*
X119954718Y-72837103D01*
X119961746Y-72919571D01*
X119965243Y-72986713D01*
X119964931Y-73040063D01*
X119960533Y-73081153D01*
X119951775Y-73111515D01*
X119945673Y-73123152D01*
X119938378Y-73132682D01*
X119929854Y-73140295D01*
X119920067Y-73146184D01*
X119896565Y-73153556D01*
X119867595Y-73156328D01*
X119832882Y-73156033D01*
X119745118Y-73152371D01*
X119565201Y-73147079D01*
X119556382Y-72944232D01*
X119547562Y-72741384D01*
X119071314Y-72741384D01*
X119062494Y-72944232D01*
X119053675Y-73147079D01*
X118875522Y-73152371D01*
X118786608Y-73155247D01*
X118751363Y-73155258D01*
X118735898Y-73154439D01*
X118721815Y-73152894D01*
X118709074Y-73150488D01*
X118697632Y-73147088D01*
X118687448Y-73142561D01*
X118678479Y-73136773D01*
X118670686Y-73129592D01*
X118664024Y-73120883D01*
X118658454Y-73110514D01*
X118653933Y-73098350D01*
X118650420Y-73084259D01*
X118647873Y-73068107D01*
X118646250Y-73049760D01*
X118645510Y-73029086D01*
X118645611Y-73005951D01*
X118646511Y-72980221D01*
X118650543Y-72920445D01*
X118657273Y-72848690D01*
X118666367Y-72763890D01*
X118690314Y-72550884D01*
X118748301Y-72040319D01*
X118786445Y-71733981D01*
X118800142Y-71641429D01*
X118811359Y-71580772D01*
X118820922Y-71545622D01*
X118829658Y-71529593D01*
X118831614Y-71527971D01*
X118834189Y-71526408D01*
X118837400Y-71524906D01*
X118841268Y-71523461D01*
X118851044Y-71520741D01*
X118863668Y-71518238D01*
X118879289Y-71515942D01*
X118898057Y-71513842D01*
X118920123Y-71511928D01*
X118945635Y-71510190D01*
X118974743Y-71508617D01*
X119007599Y-71507199D01*
X119085148Y-71504787D01*
X119179483Y-71502871D01*
X119291801Y-71501370D01*
X119546626Y-71498944D01*
X119626476Y-71499509D01*
G37*
G36*
X117245688Y-96104092D02*
G01*
X111319022Y-96104092D01*
X111319022Y-94551870D01*
X115323051Y-94551870D01*
X115319520Y-93805746D01*
X115314231Y-93061386D01*
X114171229Y-93056091D01*
X113029993Y-93052566D01*
X113033521Y-92279980D01*
X113038813Y-91509161D01*
X114180048Y-91503869D01*
X115323051Y-91500341D01*
X115323051Y-90036315D01*
X111548328Y-90036315D01*
X111548328Y-88484092D01*
X117245688Y-88484092D01*
X117245688Y-96104092D01*
G37*
G36*
X125913439Y-88575814D02*
G01*
X126241521Y-92329370D01*
X126566077Y-96045883D01*
X126574897Y-96104092D01*
X124691062Y-96104092D01*
X124682242Y-96045883D01*
X124407078Y-91696133D01*
X124407017Y-91691919D01*
X124406840Y-91687892D01*
X124406554Y-91684072D01*
X124406168Y-91680478D01*
X124405688Y-91677133D01*
X124405124Y-91674057D01*
X124404482Y-91671270D01*
X124403770Y-91668793D01*
X124402996Y-91666647D01*
X124402168Y-91664852D01*
X124401293Y-91663429D01*
X124400380Y-91662399D01*
X124399911Y-91662038D01*
X124399435Y-91661782D01*
X124398954Y-91661635D01*
X124398468Y-91661600D01*
X124397978Y-91661677D01*
X124397485Y-91661871D01*
X124396990Y-91662184D01*
X124396494Y-91662618D01*
X124353581Y-91770714D01*
X124243696Y-92057732D01*
X123888492Y-92992593D01*
X123389312Y-94313745D01*
X122368021Y-94319039D01*
X121346729Y-94322564D01*
X120844022Y-92990829D01*
X120488156Y-92052881D01*
X120378189Y-91769446D01*
X120336020Y-91667913D01*
X120050272Y-96072341D01*
X120050077Y-96075071D01*
X120049807Y-96076375D01*
X120049396Y-96077640D01*
X120048827Y-96078865D01*
X120048082Y-96080053D01*
X120047142Y-96081202D01*
X120045990Y-96082315D01*
X120044607Y-96083391D01*
X120042974Y-96084431D01*
X120041074Y-96085436D01*
X120038889Y-96086407D01*
X120036400Y-96087343D01*
X120033589Y-96088245D01*
X120030438Y-96089115D01*
X120026928Y-96089953D01*
X120018761Y-96091534D01*
X120008942Y-96092993D01*
X119997325Y-96094335D01*
X119983764Y-96095565D01*
X119968115Y-96096688D01*
X119950231Y-96097708D01*
X119929967Y-96098631D01*
X119907176Y-96099462D01*
X119881714Y-96100204D01*
X119853435Y-96100863D01*
X119822193Y-96101444D01*
X119787842Y-96101952D01*
X119709231Y-96102768D01*
X119616438Y-96103348D01*
X119508297Y-96103731D01*
X119383643Y-96103957D01*
X119080134Y-96104092D01*
X118630148Y-96103044D01*
X118329817Y-96099682D01*
X118162110Y-96093674D01*
X118122667Y-96089574D01*
X118113116Y-96087232D01*
X118109992Y-96084689D01*
X118755576Y-88558175D01*
X118764396Y-88484092D01*
X119808619Y-88487620D01*
X120851078Y-88492912D01*
X121574271Y-90332647D01*
X122123282Y-91708481D01*
X122263345Y-92044171D01*
X122300200Y-92124828D01*
X122315104Y-92147689D01*
X122378521Y-91995664D01*
X122539338Y-91598238D01*
X123055938Y-90307954D01*
X123782660Y-88492912D01*
X124842757Y-88487620D01*
X125902854Y-88484092D01*
X125913439Y-88575814D01*
G37*
G36*
X129151938Y-90969413D02*
G01*
X129156347Y-92879483D01*
X129162355Y-93381172D01*
X129171340Y-93592315D01*
X129188412Y-93694323D01*
X129210518Y-93791324D01*
X129237647Y-93883312D01*
X129269788Y-93970283D01*
X129306931Y-94052230D01*
X129349066Y-94129150D01*
X129396183Y-94201036D01*
X129448272Y-94267883D01*
X129505321Y-94329687D01*
X129567320Y-94386443D01*
X129634260Y-94438144D01*
X129706130Y-94484786D01*
X129782920Y-94526364D01*
X129864618Y-94562872D01*
X129951216Y-94594306D01*
X130042702Y-94620660D01*
X130130168Y-94640220D01*
X130223266Y-94656589D01*
X130321057Y-94669801D01*
X130422599Y-94679889D01*
X130526953Y-94686886D01*
X130633177Y-94690827D01*
X130740332Y-94691745D01*
X130847476Y-94689673D01*
X130953669Y-94684646D01*
X131057971Y-94676696D01*
X131159441Y-94665857D01*
X131257139Y-94652164D01*
X131350124Y-94635648D01*
X131437455Y-94616345D01*
X131518193Y-94594288D01*
X131591396Y-94569509D01*
X131636882Y-94551206D01*
X131681355Y-94530732D01*
X131724753Y-94508149D01*
X131767014Y-94483520D01*
X131808076Y-94456907D01*
X131847877Y-94428371D01*
X131886355Y-94397975D01*
X131923448Y-94365780D01*
X131959095Y-94331849D01*
X131993232Y-94296244D01*
X132025799Y-94259026D01*
X132056732Y-94220258D01*
X132085971Y-94180002D01*
X132113453Y-94138320D01*
X132139116Y-94095273D01*
X132162897Y-94050924D01*
X132175393Y-94024257D01*
X132187709Y-93994680D01*
X132199786Y-93962426D01*
X132211569Y-93927728D01*
X132223001Y-93890819D01*
X132234024Y-93851930D01*
X132244582Y-93811294D01*
X132254619Y-93769145D01*
X132264076Y-93725713D01*
X132272898Y-93681233D01*
X132281028Y-93635936D01*
X132288408Y-93590055D01*
X132294982Y-93543823D01*
X132300693Y-93497472D01*
X132305485Y-93451234D01*
X132309299Y-93405343D01*
X132315776Y-93133979D01*
X132321426Y-92558675D01*
X132325423Y-91763767D01*
X132326938Y-90833592D01*
X132326938Y-88484092D01*
X134249576Y-88484092D01*
X134249576Y-91001162D01*
X134244505Y-92910791D01*
X134238414Y-93471459D01*
X134230173Y-93731661D01*
X134200115Y-93989759D01*
X134155484Y-94233002D01*
X134127658Y-94349101D01*
X134096135Y-94461543D01*
X134060897Y-94570348D01*
X134021925Y-94675535D01*
X133979201Y-94777122D01*
X133932707Y-94875130D01*
X133882426Y-94969576D01*
X133828338Y-95060480D01*
X133770426Y-95147860D01*
X133708673Y-95231737D01*
X133643059Y-95312129D01*
X133573566Y-95389055D01*
X133500178Y-95462535D01*
X133422874Y-95532586D01*
X133341638Y-95599229D01*
X133256452Y-95662482D01*
X133167297Y-95722364D01*
X133074155Y-95778895D01*
X132977008Y-95832094D01*
X132875838Y-95881979D01*
X132770626Y-95928570D01*
X132661356Y-95971885D01*
X132430566Y-96048766D01*
X132183321Y-96112774D01*
X131919478Y-96164062D01*
X131764188Y-96188013D01*
X131617082Y-96207168D01*
X131472127Y-96221859D01*
X131323285Y-96232415D01*
X131164521Y-96239167D01*
X130989800Y-96242447D01*
X130793085Y-96242585D01*
X130568340Y-96239910D01*
X130357989Y-96235498D01*
X130179678Y-96229742D01*
X130025924Y-96221960D01*
X129889244Y-96211470D01*
X129762154Y-96197590D01*
X129637173Y-96179637D01*
X129506818Y-96156930D01*
X129363605Y-96128787D01*
X129149839Y-96078938D01*
X128947703Y-96019963D01*
X128757126Y-95951789D01*
X128578040Y-95874345D01*
X128410375Y-95787558D01*
X128254060Y-95691355D01*
X128109026Y-95585665D01*
X127975203Y-95470415D01*
X127852522Y-95345532D01*
X127740913Y-95210944D01*
X127640305Y-95066579D01*
X127550630Y-94912365D01*
X127471817Y-94748228D01*
X127403796Y-94574098D01*
X127346499Y-94389901D01*
X127299854Y-94195565D01*
X127274298Y-94067500D01*
X127263988Y-94006525D01*
X127255151Y-93941316D01*
X127247657Y-93867166D01*
X127241377Y-93779372D01*
X127236183Y-93673227D01*
X127231944Y-93544027D01*
X127228533Y-93387066D01*
X127225819Y-93197640D01*
X127223673Y-92971042D01*
X127221967Y-92702569D01*
X127219355Y-92021174D01*
X127216950Y-91115814D01*
X127209897Y-88484092D01*
X129151938Y-88484092D01*
X129151938Y-90969413D01*
G37*
G36*
X106560047Y-88485856D02*
G01*
X107333375Y-88488006D01*
X107854522Y-88492471D01*
X108179547Y-88500243D01*
X108364509Y-88512315D01*
X108521317Y-88531924D01*
X108672847Y-88555664D01*
X108818988Y-88583493D01*
X108959627Y-88615364D01*
X109094654Y-88651236D01*
X109223959Y-88691063D01*
X109347429Y-88734803D01*
X109464953Y-88782410D01*
X109576422Y-88833841D01*
X109681722Y-88889053D01*
X109780745Y-88948001D01*
X109873377Y-89010641D01*
X109959508Y-89076929D01*
X110039028Y-89146822D01*
X110111825Y-89220275D01*
X110177787Y-89297245D01*
X110211454Y-89340975D01*
X110243649Y-89386136D01*
X110274345Y-89432671D01*
X110303517Y-89480524D01*
X110331139Y-89529638D01*
X110357184Y-89579956D01*
X110381628Y-89631422D01*
X110404444Y-89683977D01*
X110425606Y-89737567D01*
X110445089Y-89792133D01*
X110462866Y-89847618D01*
X110478913Y-89903967D01*
X110493203Y-89961122D01*
X110505710Y-90019026D01*
X110516408Y-90077623D01*
X110525272Y-90136855D01*
X110530651Y-90181300D01*
X110534901Y-90229563D01*
X110540128Y-90335128D01*
X110541178Y-90448713D01*
X110538281Y-90565481D01*
X110531662Y-90680595D01*
X110521550Y-90789219D01*
X110508172Y-90886515D01*
X110500329Y-90929403D01*
X110491755Y-90967646D01*
X110467691Y-91054163D01*
X110439056Y-91138550D01*
X110405703Y-91220995D01*
X110367484Y-91301683D01*
X110324253Y-91380800D01*
X110275862Y-91458531D01*
X110222164Y-91535064D01*
X110163012Y-91610585D01*
X110098257Y-91685278D01*
X110027754Y-91759331D01*
X109951355Y-91832928D01*
X109868911Y-91906257D01*
X109780277Y-91979504D01*
X109685305Y-92052853D01*
X109583848Y-92126492D01*
X109475757Y-92200607D01*
X109401636Y-92249268D01*
X109365807Y-92272226D01*
X109327949Y-92295884D01*
X109285926Y-92321454D01*
X109237601Y-92350147D01*
X109180838Y-92383177D01*
X109113499Y-92421754D01*
X108938546Y-92520397D01*
X108695650Y-92655773D01*
X107937647Y-93075497D01*
X107105532Y-93539398D01*
X106826893Y-93697597D01*
X106694105Y-93775759D01*
X106651720Y-93805167D01*
X106612500Y-93833916D01*
X106576387Y-93862091D01*
X106543320Y-93889778D01*
X106513239Y-93917061D01*
X106486086Y-93944027D01*
X106461802Y-93970761D01*
X106440325Y-93997347D01*
X106421598Y-94023871D01*
X106405561Y-94050418D01*
X106392154Y-94077074D01*
X106381318Y-94103923D01*
X106372994Y-94131052D01*
X106367121Y-94158545D01*
X106363641Y-94186488D01*
X106362494Y-94214965D01*
X106362767Y-94234634D01*
X106363600Y-94253337D01*
X106365018Y-94271141D01*
X106367042Y-94288113D01*
X106369697Y-94304319D01*
X106373006Y-94319829D01*
X106376991Y-94334707D01*
X106381677Y-94349023D01*
X106387086Y-94362842D01*
X106393242Y-94376233D01*
X106400168Y-94389261D01*
X106407888Y-94401995D01*
X106416424Y-94414502D01*
X106425799Y-94426849D01*
X106436038Y-94439102D01*
X106447162Y-94451330D01*
X106464415Y-94469609D01*
X106472733Y-94477854D01*
X106481419Y-94485529D01*
X106486033Y-94489159D01*
X106490900Y-94492655D01*
X106496074Y-94496019D01*
X106501607Y-94499253D01*
X106507553Y-94502360D01*
X106513966Y-94505342D01*
X106520900Y-94508202D01*
X106528409Y-94510943D01*
X106536545Y-94513567D01*
X106545363Y-94516077D01*
X106554916Y-94518474D01*
X106565257Y-94520763D01*
X106576441Y-94522944D01*
X106588521Y-94525022D01*
X106601550Y-94526998D01*
X106615583Y-94528875D01*
X106630672Y-94530655D01*
X106646872Y-94532341D01*
X106682817Y-94535441D01*
X106723847Y-94538196D01*
X106770391Y-94540626D01*
X106822878Y-94542750D01*
X106881736Y-94544590D01*
X106947395Y-94546166D01*
X107020284Y-94547498D01*
X107100831Y-94548607D01*
X107189466Y-94549512D01*
X107286617Y-94550235D01*
X107392713Y-94550795D01*
X107633456Y-94551510D01*
X107915127Y-94551818D01*
X108614979Y-94551870D01*
X110560551Y-94551870D01*
X110560551Y-96105856D01*
X108350394Y-96098800D01*
X106987046Y-96093785D01*
X106568146Y-96089562D01*
X106278045Y-96082485D01*
X106081954Y-96071275D01*
X105945084Y-96054649D01*
X105832647Y-96031326D01*
X105709855Y-96000024D01*
X105653562Y-95984486D01*
X105597851Y-95967664D01*
X105542806Y-95949596D01*
X105488514Y-95930322D01*
X105435058Y-95909880D01*
X105382525Y-95888308D01*
X105331000Y-95865647D01*
X105280567Y-95841934D01*
X105231313Y-95817208D01*
X105183323Y-95791508D01*
X105136681Y-95764872D01*
X105091472Y-95737341D01*
X105047784Y-95708951D01*
X105005699Y-95679743D01*
X104965305Y-95649754D01*
X104926685Y-95619024D01*
X104885713Y-95583107D01*
X104845550Y-95544262D01*
X104806301Y-95502663D01*
X104768073Y-95458482D01*
X104730972Y-95411894D01*
X104695103Y-95363070D01*
X104660573Y-95312185D01*
X104627487Y-95259411D01*
X104595951Y-95204921D01*
X104566072Y-95148888D01*
X104537955Y-95091487D01*
X104511706Y-95032888D01*
X104487431Y-94973267D01*
X104465236Y-94912796D01*
X104445226Y-94851648D01*
X104427509Y-94789996D01*
X104412802Y-94732990D01*
X104406738Y-94707299D01*
X104401463Y-94682537D01*
X104396922Y-94657991D01*
X104393060Y-94632951D01*
X104389824Y-94606708D01*
X104387158Y-94578550D01*
X104385009Y-94547766D01*
X104383323Y-94513648D01*
X104382045Y-94475482D01*
X104381121Y-94432560D01*
X104380118Y-94329604D01*
X104379880Y-94199093D01*
X104379964Y-93973481D01*
X104381525Y-93893065D01*
X104384512Y-93828235D01*
X104389235Y-93774485D01*
X104396004Y-93727308D01*
X104405130Y-93682198D01*
X104416923Y-93634649D01*
X104446712Y-93530214D01*
X104481938Y-93428460D01*
X104522745Y-93329218D01*
X104569278Y-93232317D01*
X104621681Y-93137586D01*
X104680100Y-93044855D01*
X104744678Y-92953953D01*
X104815561Y-92864710D01*
X104892893Y-92776956D01*
X104976820Y-92690519D01*
X105067484Y-92605230D01*
X105165033Y-92520917D01*
X105269609Y-92437410D01*
X105381358Y-92354540D01*
X105500425Y-92272134D01*
X105626954Y-92190023D01*
X105788459Y-92095352D01*
X106100115Y-91918163D01*
X106516944Y-91683758D01*
X106993967Y-91417437D01*
X107874146Y-90923772D01*
X108171196Y-90754411D01*
X108315119Y-90669552D01*
X108346394Y-90647963D01*
X108374822Y-90627394D01*
X108400531Y-90607667D01*
X108423652Y-90588605D01*
X108444313Y-90570029D01*
X108462643Y-90551760D01*
X108478773Y-90533620D01*
X108492830Y-90515431D01*
X108504944Y-90497015D01*
X108515244Y-90478193D01*
X108523860Y-90458787D01*
X108530920Y-90438619D01*
X108536553Y-90417510D01*
X108540890Y-90395283D01*
X108544059Y-90371758D01*
X108546189Y-90346758D01*
X108547638Y-90315828D01*
X108547920Y-90302273D01*
X108547869Y-90289818D01*
X108547456Y-90278335D01*
X108546653Y-90267694D01*
X108545431Y-90257766D01*
X108543762Y-90248422D01*
X108541618Y-90239533D01*
X108538971Y-90230969D01*
X108535790Y-90222602D01*
X108532050Y-90214302D01*
X108527720Y-90205940D01*
X108522772Y-90197387D01*
X108517179Y-90188513D01*
X108510911Y-90179189D01*
X108506351Y-90172790D01*
X108501306Y-90166194D01*
X108495826Y-90159454D01*
X108489964Y-90152621D01*
X108483771Y-90145746D01*
X108477300Y-90138881D01*
X108470601Y-90132079D01*
X108463726Y-90125390D01*
X108456727Y-90118867D01*
X108449656Y-90112561D01*
X108442564Y-90106523D01*
X108435503Y-90100806D01*
X108428525Y-90095461D01*
X108421681Y-90090540D01*
X108415024Y-90086094D01*
X108408603Y-90082176D01*
X108402884Y-90078810D01*
X108397094Y-90075654D01*
X108390927Y-90072700D01*
X108384075Y-90069939D01*
X108376231Y-90067364D01*
X108367088Y-90064968D01*
X108356337Y-90062742D01*
X108343671Y-90060679D01*
X108328784Y-90058771D01*
X108311367Y-90057010D01*
X108291113Y-90055388D01*
X108267714Y-90053899D01*
X108240864Y-90052533D01*
X108210254Y-90051284D01*
X108175577Y-90050143D01*
X108136525Y-90049103D01*
X108092792Y-90048156D01*
X108044069Y-90047295D01*
X107930426Y-90045796D01*
X107793135Y-90044545D01*
X107629738Y-90043481D01*
X107437773Y-90042540D01*
X107214782Y-90041661D01*
X106665882Y-90039842D01*
X104986661Y-90036315D01*
X104986661Y-88484092D01*
X106560047Y-88485856D01*
G37*
G36*
X119984649Y-69382113D02*
G01*
X120378134Y-69386026D01*
X120492866Y-69389615D01*
X120566235Y-69394569D01*
X120608227Y-69401093D01*
X120628824Y-69409395D01*
X120632831Y-69412181D01*
X120636894Y-69415228D01*
X120640988Y-69418508D01*
X120645087Y-69421991D01*
X120649166Y-69425651D01*
X120653198Y-69429457D01*
X120657157Y-69433382D01*
X120661019Y-69437398D01*
X120664756Y-69441476D01*
X120668343Y-69445588D01*
X120671755Y-69449704D01*
X120674965Y-69453798D01*
X120677948Y-69457839D01*
X120680677Y-69461801D01*
X120683127Y-69465654D01*
X120685273Y-69469370D01*
X120693602Y-69511077D01*
X120711233Y-69618143D01*
X120769937Y-69999418D01*
X120852453Y-70555319D01*
X120949854Y-71227967D01*
X121129771Y-72465776D01*
X121214438Y-73018314D01*
X121217476Y-73028641D01*
X121220651Y-73038462D01*
X121223988Y-73047790D01*
X121227512Y-73056637D01*
X121231246Y-73065013D01*
X121235215Y-73072930D01*
X121239443Y-73080401D01*
X121243955Y-73087436D01*
X121248774Y-73094047D01*
X121253924Y-73100246D01*
X121259431Y-73106045D01*
X121265317Y-73111455D01*
X121271608Y-73116488D01*
X121278328Y-73121155D01*
X121285501Y-73125468D01*
X121293150Y-73129439D01*
X121301301Y-73133079D01*
X121309977Y-73136400D01*
X121319203Y-73139413D01*
X121329003Y-73142131D01*
X121339401Y-73144564D01*
X121350422Y-73146725D01*
X121362089Y-73148625D01*
X121374427Y-73150276D01*
X121387460Y-73151688D01*
X121401212Y-73152875D01*
X121430971Y-73154617D01*
X121463898Y-73155594D01*
X121500187Y-73155898D01*
X121560951Y-73156767D01*
X121587972Y-73157898D01*
X121612910Y-73159536D01*
X121635885Y-73161712D01*
X121657014Y-73164456D01*
X121676418Y-73167799D01*
X121694215Y-73171773D01*
X121710523Y-73176408D01*
X121725462Y-73181736D01*
X121739150Y-73187787D01*
X121751707Y-73194593D01*
X121763251Y-73202184D01*
X121773901Y-73210592D01*
X121783775Y-73219847D01*
X121792994Y-73229981D01*
X121803584Y-73256691D01*
X121826453Y-73323274D01*
X121903237Y-73558284D01*
X122011771Y-73899459D01*
X122140479Y-74311245D01*
X122269822Y-74724629D01*
X122380147Y-75067733D01*
X122459715Y-75304672D01*
X122484296Y-75372117D01*
X122496784Y-75399564D01*
X122501226Y-75404101D01*
X122505965Y-75408456D01*
X122511020Y-75412629D01*
X122516408Y-75416624D01*
X122522147Y-75420444D01*
X122528255Y-75424090D01*
X122534752Y-75427566D01*
X122541654Y-75430873D01*
X122548979Y-75434016D01*
X122556747Y-75436995D01*
X122564974Y-75439815D01*
X122573679Y-75442477D01*
X122592597Y-75447338D01*
X122613643Y-75451599D01*
X122636963Y-75455282D01*
X122662701Y-75458407D01*
X122691002Y-75460994D01*
X122722011Y-75463065D01*
X122755873Y-75464639D01*
X122792732Y-75465738D01*
X122832733Y-75466382D01*
X122876020Y-75466593D01*
X122949125Y-75466686D01*
X123005115Y-75467337D01*
X123027648Y-75468046D01*
X123047049Y-75469104D01*
X123063701Y-75470581D01*
X123077986Y-75472546D01*
X123090287Y-75475069D01*
X123100986Y-75478220D01*
X123110465Y-75482068D01*
X123119107Y-75486684D01*
X123127294Y-75492137D01*
X123135409Y-75498497D01*
X123152952Y-75514217D01*
X123157286Y-75518714D01*
X123161729Y-75524050D01*
X123166336Y-75530388D01*
X123171163Y-75537895D01*
X123176266Y-75546737D01*
X123181702Y-75557078D01*
X123193797Y-75582926D01*
X123207897Y-75616762D01*
X123224451Y-75659913D01*
X123243910Y-75713705D01*
X123266723Y-75779462D01*
X123293339Y-75858510D01*
X123324207Y-75952175D01*
X123400502Y-76188657D01*
X123499204Y-76499511D01*
X123623910Y-76895342D01*
X123824580Y-77529020D01*
X123960592Y-77947061D01*
X124043357Y-78183202D01*
X124068337Y-78243601D01*
X124084284Y-78271176D01*
X124091567Y-78278940D01*
X124095066Y-78282459D01*
X124098561Y-78285749D01*
X124102117Y-78288818D01*
X124105802Y-78291678D01*
X124109684Y-78294338D01*
X124113829Y-78296807D01*
X124118305Y-78299096D01*
X124123179Y-78301213D01*
X124128518Y-78303169D01*
X124134390Y-78304972D01*
X124140860Y-78306634D01*
X124147998Y-78308164D01*
X124155869Y-78309570D01*
X124164541Y-78310864D01*
X124174081Y-78312054D01*
X124184557Y-78313150D01*
X124196035Y-78314163D01*
X124208583Y-78315101D01*
X124222268Y-78315975D01*
X124237157Y-78316794D01*
X124253317Y-78317567D01*
X124270816Y-78318305D01*
X124310097Y-78319713D01*
X124355538Y-78321096D01*
X124467049Y-78324093D01*
X124654517Y-78330266D01*
X124717390Y-78333642D01*
X124764264Y-78337763D01*
X124782773Y-78340231D01*
X124798570Y-78343040D01*
X124812082Y-78346242D01*
X124823739Y-78349889D01*
X124833970Y-78354032D01*
X124843204Y-78358722D01*
X124860395Y-78369953D01*
X124865432Y-78374081D01*
X124870593Y-78378500D01*
X124875836Y-78383173D01*
X124881121Y-78388060D01*
X124886406Y-78393123D01*
X124891649Y-78398323D01*
X124896810Y-78403621D01*
X124901847Y-78408979D01*
X124906718Y-78414357D01*
X124911383Y-78419717D01*
X124915799Y-78425020D01*
X124919926Y-78430228D01*
X124923723Y-78435302D01*
X124927147Y-78440202D01*
X124930158Y-78444890D01*
X124932714Y-78449328D01*
X125661202Y-80184995D01*
X125960649Y-80898241D01*
X126191470Y-81439341D01*
X126344570Y-81787626D01*
X126389133Y-81883003D01*
X126410854Y-81922425D01*
X126418458Y-81929897D01*
X126422075Y-81933294D01*
X126425627Y-81936475D01*
X126429159Y-81939446D01*
X126432714Y-81942215D01*
X126436336Y-81944789D01*
X126440069Y-81947175D01*
X126443957Y-81949380D01*
X126448044Y-81951412D01*
X126452374Y-81953277D01*
X126456991Y-81954982D01*
X126461939Y-81956535D01*
X126467261Y-81957942D01*
X126473002Y-81959211D01*
X126479205Y-81960349D01*
X126485915Y-81961363D01*
X126493175Y-81962261D01*
X126501030Y-81963048D01*
X126509522Y-81963733D01*
X126518697Y-81964322D01*
X126528598Y-81964822D01*
X126550753Y-81965586D01*
X126576339Y-81966081D01*
X126605709Y-81966365D01*
X126639212Y-81966493D01*
X126677201Y-81966523D01*
X126901217Y-81966523D01*
X126924146Y-81869509D01*
X126960071Y-81704056D01*
X126991777Y-81537243D01*
X127019261Y-81369283D01*
X127042520Y-81200388D01*
X127061552Y-81030770D01*
X127076354Y-80860640D01*
X127086924Y-80690210D01*
X127093259Y-80519693D01*
X127095357Y-80349299D01*
X127093215Y-80179241D01*
X127086830Y-80009732D01*
X127076199Y-79840981D01*
X127061321Y-79673203D01*
X127042193Y-79506608D01*
X127018812Y-79341408D01*
X126991175Y-79177815D01*
X126908449Y-78795295D01*
X126802893Y-78418874D01*
X126675116Y-78049356D01*
X126525728Y-77687549D01*
X126355338Y-77334258D01*
X126164557Y-76990289D01*
X125953995Y-76656449D01*
X125724260Y-76333544D01*
X125475963Y-76022379D01*
X125209714Y-75723762D01*
X124926123Y-75438497D01*
X124625798Y-75167393D01*
X124309351Y-74911253D01*
X123977390Y-74670886D01*
X123630526Y-74447096D01*
X123269369Y-74240690D01*
X123210010Y-74208640D01*
X123185149Y-74194626D01*
X123163260Y-74181737D01*
X123144161Y-74169809D01*
X123127672Y-74158679D01*
X123113612Y-74148185D01*
X123101799Y-74138164D01*
X123092054Y-74128452D01*
X123084195Y-74118888D01*
X123078041Y-74109309D01*
X123073412Y-74099551D01*
X123070126Y-74089452D01*
X123068003Y-74078849D01*
X123066861Y-74067580D01*
X123066521Y-74055481D01*
X123066710Y-74050626D01*
X123067265Y-74045664D01*
X123068172Y-74040613D01*
X123069415Y-74035489D01*
X123070978Y-74030309D01*
X123072846Y-74025091D01*
X123075004Y-74019851D01*
X123077435Y-74014608D01*
X123083058Y-74004176D01*
X123089589Y-73993934D01*
X123096907Y-73984017D01*
X123104886Y-73974562D01*
X123113402Y-73965707D01*
X123122331Y-73957588D01*
X123131550Y-73950343D01*
X123140935Y-73944108D01*
X123145650Y-73941412D01*
X123150360Y-73939020D01*
X123155050Y-73936949D01*
X123159703Y-73935217D01*
X123164305Y-73933839D01*
X123168839Y-73932834D01*
X123173291Y-73932218D01*
X123177645Y-73932009D01*
X123190790Y-73934332D01*
X123211287Y-73941080D01*
X123238506Y-73951927D01*
X123271820Y-73966543D01*
X123354224Y-74005772D01*
X123453474Y-74056143D01*
X123564547Y-74115030D01*
X123682421Y-74179808D01*
X123802073Y-74247852D01*
X123918479Y-74316536D01*
X124279958Y-74546305D01*
X124626508Y-74792583D01*
X124957586Y-75054596D01*
X125272650Y-75331572D01*
X125571156Y-75622738D01*
X125852563Y-75927322D01*
X126116327Y-76244551D01*
X126361906Y-76573653D01*
X126588758Y-76913855D01*
X126796340Y-77264384D01*
X126984109Y-77624469D01*
X127151523Y-77993335D01*
X127298039Y-78370212D01*
X127423114Y-78754326D01*
X127526206Y-79144905D01*
X127606772Y-79541175D01*
X127632944Y-79698320D01*
X127654755Y-79847817D01*
X127672473Y-79992931D01*
X127686366Y-80136929D01*
X127696705Y-80283077D01*
X127703757Y-80434641D01*
X127707791Y-80594886D01*
X127709077Y-80767079D01*
X127706624Y-80986066D01*
X127699044Y-81194077D01*
X127686008Y-81394358D01*
X127667184Y-81590153D01*
X127642241Y-81784708D01*
X127610850Y-81981267D01*
X127572678Y-82183077D01*
X127527396Y-82393383D01*
X127474480Y-82626219D01*
X128301742Y-84227828D01*
X128889559Y-85370167D01*
X129141355Y-85868244D01*
X129142820Y-85873769D01*
X129143897Y-85879118D01*
X129144572Y-85884322D01*
X129144753Y-85886879D01*
X129144828Y-85889412D01*
X129144794Y-85891924D01*
X129144649Y-85894420D01*
X129144393Y-85896902D01*
X129144021Y-85899375D01*
X129143534Y-85901844D01*
X129142929Y-85904311D01*
X129142203Y-85906780D01*
X129141355Y-85909256D01*
X129140383Y-85911742D01*
X129139285Y-85914243D01*
X129138060Y-85916761D01*
X129136704Y-85919302D01*
X129133596Y-85924464D01*
X129129945Y-85929761D01*
X129125736Y-85935223D01*
X129120953Y-85940882D01*
X129115581Y-85946768D01*
X129109604Y-85952912D01*
X129065507Y-85997009D01*
X127929561Y-85997009D01*
X127304511Y-85996265D01*
X126958762Y-85992379D01*
X126863391Y-85988483D01*
X126805165Y-85982870D01*
X126773191Y-85975232D01*
X126756576Y-85965258D01*
X126750224Y-85956417D01*
X126740408Y-85937105D01*
X126710246Y-85866702D01*
X126665822Y-85753303D01*
X126606866Y-85596166D01*
X126533110Y-85394545D01*
X126444285Y-85147697D01*
X126220353Y-84515342D01*
X125979858Y-83836217D01*
X125817746Y-83389760D01*
X125719795Y-83137442D01*
X125690436Y-83072043D01*
X125671784Y-83040731D01*
X125655155Y-83022023D01*
X125647139Y-83013495D01*
X125639208Y-83005495D01*
X125631277Y-82998007D01*
X125623261Y-82991014D01*
X125615074Y-82984499D01*
X125606631Y-82978444D01*
X125597848Y-82972835D01*
X125588638Y-82967653D01*
X125578916Y-82962881D01*
X125568598Y-82958504D01*
X125557597Y-82954504D01*
X125545829Y-82950865D01*
X125533208Y-82947569D01*
X125519650Y-82944600D01*
X125505068Y-82941941D01*
X125489378Y-82939575D01*
X125472494Y-82937486D01*
X125454331Y-82935656D01*
X125434803Y-82934069D01*
X125413827Y-82932709D01*
X125391315Y-82931557D01*
X125367183Y-82930598D01*
X125313719Y-82929191D01*
X125252751Y-82928352D01*
X125183597Y-82927947D01*
X125105576Y-82927842D01*
X124881728Y-82927016D01*
X124809595Y-82925424D01*
X124758091Y-82922551D01*
X124738692Y-82920518D01*
X124722793Y-82918024D01*
X124709838Y-82915025D01*
X124699276Y-82911472D01*
X124690554Y-82907320D01*
X124683119Y-82902522D01*
X124669897Y-82890801D01*
X124661488Y-82882121D01*
X124653414Y-82873080D01*
X124645606Y-82863376D01*
X124637998Y-82852712D01*
X124630520Y-82840787D01*
X124623104Y-82827301D01*
X124615683Y-82811955D01*
X124608187Y-82794448D01*
X124600550Y-82774482D01*
X124592702Y-82751757D01*
X124584576Y-82725972D01*
X124576103Y-82696828D01*
X124567216Y-82664026D01*
X124557845Y-82627265D01*
X124547924Y-82586246D01*
X124537384Y-82540669D01*
X124514173Y-82434643D01*
X124487668Y-82306788D01*
X124457323Y-82154708D01*
X124422594Y-81976004D01*
X124382935Y-81768278D01*
X124337800Y-81529134D01*
X124228925Y-80946995D01*
X124081585Y-80158757D01*
X123977571Y-79619227D01*
X123911921Y-79303932D01*
X123891932Y-79222725D01*
X123879674Y-79188398D01*
X123874274Y-79181006D01*
X123868943Y-79174036D01*
X123863618Y-79167476D01*
X123858235Y-79161313D01*
X123852729Y-79155535D01*
X123847036Y-79150129D01*
X123841092Y-79145084D01*
X123834832Y-79140387D01*
X123828193Y-79136027D01*
X123821109Y-79131989D01*
X123813517Y-79128263D01*
X123805352Y-79124836D01*
X123796551Y-79121696D01*
X123787048Y-79118831D01*
X123776780Y-79116227D01*
X123765682Y-79113874D01*
X123753690Y-79111758D01*
X123740740Y-79109868D01*
X123726767Y-79108191D01*
X123711708Y-79106715D01*
X123695497Y-79105428D01*
X123678071Y-79104316D01*
X123659365Y-79103369D01*
X123639316Y-79102574D01*
X123594928Y-79101390D01*
X123544393Y-79100666D01*
X123487197Y-79100303D01*
X123422826Y-79100204D01*
X123295412Y-79099429D01*
X123193961Y-79096648D01*
X123151886Y-79094293D01*
X123114999Y-79091181D01*
X123082867Y-79087226D01*
X123055055Y-79082344D01*
X123031129Y-79076449D01*
X123010654Y-79069455D01*
X122993198Y-79061279D01*
X122978326Y-79051833D01*
X122965603Y-79041034D01*
X122954596Y-79028796D01*
X122944871Y-79015033D01*
X122935993Y-78999661D01*
X122932300Y-78987634D01*
X122927201Y-78964298D01*
X122912952Y-78884761D01*
X122893577Y-78763181D01*
X122869406Y-78601685D01*
X122808000Y-78167466D01*
X122731382Y-77599135D01*
X122647515Y-76977997D01*
X122586964Y-76551163D01*
X122546587Y-76298624D01*
X122532982Y-76231462D01*
X122523243Y-76200370D01*
X122519944Y-76194860D01*
X122516036Y-76188950D01*
X122511569Y-76182693D01*
X122506596Y-76176144D01*
X122501168Y-76169358D01*
X122495337Y-76162388D01*
X122489155Y-76155289D01*
X122482673Y-76148115D01*
X122475943Y-76140920D01*
X122469016Y-76133759D01*
X122461945Y-76126686D01*
X122454781Y-76119754D01*
X122447575Y-76113020D01*
X122440380Y-76106536D01*
X122433247Y-76100357D01*
X122426227Y-76094537D01*
X122357438Y-76039856D01*
X122073450Y-76031037D01*
X121970318Y-76027506D01*
X121889014Y-76022962D01*
X121855566Y-76020045D01*
X121826396Y-76016558D01*
X121801113Y-76012393D01*
X121779323Y-76007445D01*
X121760633Y-76001609D01*
X121744651Y-75994778D01*
X121730984Y-75986846D01*
X121719240Y-75977707D01*
X121709025Y-75967256D01*
X121699947Y-75955386D01*
X121691613Y-75941992D01*
X121683631Y-75926967D01*
X121679994Y-75917098D01*
X121675700Y-75899448D01*
X121665165Y-75841088D01*
X121652067Y-75752466D01*
X121636448Y-75634162D01*
X121618347Y-75486753D01*
X121597808Y-75310819D01*
X121549576Y-74875690D01*
X121506940Y-74484464D01*
X121469099Y-74158888D01*
X121440189Y-73932863D01*
X121430374Y-73867775D01*
X121424341Y-73840288D01*
X121422094Y-73836822D01*
X121419349Y-73833067D01*
X121416143Y-73829064D01*
X121412516Y-73824854D01*
X121408507Y-73820478D01*
X121404155Y-73815979D01*
X121399498Y-73811397D01*
X121394574Y-73806774D01*
X121389423Y-73802150D01*
X121384084Y-73797568D01*
X121378595Y-73793069D01*
X121372994Y-73788693D01*
X121367322Y-73784483D01*
X121361615Y-73780480D01*
X121355914Y-73776725D01*
X121350257Y-73773259D01*
X121341351Y-73767922D01*
X121332342Y-73763134D01*
X121323002Y-73758869D01*
X121313105Y-73755097D01*
X121302421Y-73751790D01*
X121290725Y-73748920D01*
X121277788Y-73746458D01*
X121263384Y-73744376D01*
X121247285Y-73742645D01*
X121229264Y-73741237D01*
X121209093Y-73740124D01*
X121186545Y-73739277D01*
X121161392Y-73738668D01*
X121133408Y-73738268D01*
X121068033Y-73737982D01*
X120987595Y-73737103D01*
X120952262Y-73735947D01*
X120919951Y-73734261D01*
X120890481Y-73732006D01*
X120863675Y-73729145D01*
X120839355Y-73725637D01*
X120817342Y-73721445D01*
X120797458Y-73716529D01*
X120779525Y-73710851D01*
X120763365Y-73704372D01*
X120748798Y-73697054D01*
X120735648Y-73688856D01*
X120723735Y-73679742D01*
X120712881Y-73669671D01*
X120702909Y-73658606D01*
X120701121Y-73656101D01*
X120699392Y-73653202D01*
X120697721Y-73649886D01*
X120696106Y-73646131D01*
X120693031Y-73637215D01*
X120690150Y-73626276D01*
X120687444Y-73613136D01*
X120684896Y-73597616D01*
X120682488Y-73579538D01*
X120680201Y-73558724D01*
X120678017Y-73534995D01*
X120675918Y-73508174D01*
X120673887Y-73478081D01*
X120671904Y-73444539D01*
X120668014Y-73366394D01*
X120664103Y-73272312D01*
X120659577Y-73153491D01*
X120656949Y-73101199D01*
X120653686Y-73050999D01*
X120649493Y-73000903D01*
X120644075Y-72948921D01*
X120637138Y-72893063D01*
X120628387Y-72831340D01*
X120617527Y-72761762D01*
X120604264Y-72682340D01*
X120569352Y-72486004D01*
X120457731Y-71887660D01*
X120346466Y-71294994D01*
X120310296Y-71110034D01*
X120283324Y-70982786D01*
X120262719Y-70900848D01*
X120245649Y-70851817D01*
X120229281Y-70823291D01*
X120210785Y-70802868D01*
X120156104Y-70748190D01*
X119334131Y-70742897D01*
X118810256Y-70741767D01*
X118646049Y-70745037D01*
X118583603Y-70748127D01*
X118532444Y-70752378D01*
X118491206Y-70757931D01*
X118458526Y-70764929D01*
X118433039Y-70773513D01*
X118413382Y-70783826D01*
X118398189Y-70796009D01*
X118386097Y-70810205D01*
X118365757Y-70845204D01*
X118362138Y-70855528D01*
X118356648Y-70876206D01*
X118340511Y-70946379D01*
X118290792Y-71186295D01*
X118223874Y-71529068D01*
X118147034Y-71938815D01*
X117951243Y-72983036D01*
X117951243Y-73272312D01*
X117950967Y-73351375D01*
X117949782Y-73420955D01*
X117947150Y-73481657D01*
X117942533Y-73534086D01*
X117939313Y-73557387D01*
X117935395Y-73578846D01*
X117930712Y-73598539D01*
X117925198Y-73616541D01*
X117918784Y-73632929D01*
X117911403Y-73647777D01*
X117902990Y-73661162D01*
X117893475Y-73673158D01*
X117882793Y-73683842D01*
X117870875Y-73693289D01*
X117857656Y-73701574D01*
X117843066Y-73708774D01*
X117827041Y-73714963D01*
X117809511Y-73720218D01*
X117790411Y-73724613D01*
X117769672Y-73728225D01*
X117723012Y-73733400D01*
X117668993Y-73736349D01*
X117607077Y-73737674D01*
X117536728Y-73737982D01*
X117295075Y-73737982D01*
X117236869Y-73796191D01*
X117230341Y-73802964D01*
X117224001Y-73810026D01*
X117217874Y-73817336D01*
X117211981Y-73824853D01*
X117206347Y-73832536D01*
X117200995Y-73840342D01*
X117195947Y-73848231D01*
X117191228Y-73856161D01*
X117186860Y-73864092D01*
X117182866Y-73871981D01*
X117179271Y-73879787D01*
X117176096Y-73887469D01*
X117173367Y-73894986D01*
X117171104Y-73902296D01*
X117169333Y-73909359D01*
X117168076Y-73916132D01*
X117156473Y-74012651D01*
X117132138Y-74230547D01*
X117098873Y-74537739D01*
X117060480Y-74902148D01*
X116988160Y-75570000D01*
X116952881Y-75874050D01*
X116951626Y-75878899D01*
X116949867Y-75884151D01*
X116947638Y-75889755D01*
X116944971Y-75895658D01*
X116941902Y-75901809D01*
X116938464Y-75908157D01*
X116934689Y-75914649D01*
X116930612Y-75921235D01*
X116926267Y-75927861D01*
X116921686Y-75934477D01*
X116916904Y-75941032D01*
X116911954Y-75947472D01*
X116906870Y-75953748D01*
X116901685Y-75959806D01*
X116896433Y-75965595D01*
X116891147Y-75971064D01*
X116838230Y-76022218D01*
X116550715Y-76031037D01*
X116469101Y-76033724D01*
X116402825Y-76036660D01*
X116349860Y-76040091D01*
X116308182Y-76044266D01*
X116290941Y-76046710D01*
X116275763Y-76049434D01*
X116262394Y-76052467D01*
X116250579Y-76055841D01*
X116240067Y-76059588D01*
X116230604Y-76063738D01*
X116221937Y-76068322D01*
X116213813Y-76073371D01*
X116202114Y-76080810D01*
X116190835Y-76088570D01*
X116179978Y-76096640D01*
X116169551Y-76105010D01*
X116159557Y-76113669D01*
X116150003Y-76122607D01*
X116140893Y-76131814D01*
X116132233Y-76141280D01*
X116124028Y-76150993D01*
X116116282Y-76160944D01*
X116109002Y-76171123D01*
X116102192Y-76181518D01*
X116095857Y-76192121D01*
X116090003Y-76202920D01*
X116084635Y-76213904D01*
X116079758Y-76225065D01*
X116072206Y-76261728D01*
X116058039Y-76349364D01*
X116013170Y-76654572D01*
X115951765Y-77094717D01*
X115880439Y-77623828D01*
X115698755Y-78980259D01*
X115642313Y-79034939D01*
X115587632Y-79091384D01*
X114811521Y-79109023D01*
X114758603Y-79161939D01*
X114753936Y-79166840D01*
X114749482Y-79171829D01*
X114745174Y-79177225D01*
X114743055Y-79180174D01*
X114740947Y-79183344D01*
X114738843Y-79186774D01*
X114736734Y-79190503D01*
X114734612Y-79194571D01*
X114732469Y-79199019D01*
X114730297Y-79203885D01*
X114728086Y-79209208D01*
X114725830Y-79215030D01*
X114723519Y-79221388D01*
X114718700Y-79235876D01*
X114713565Y-79252987D01*
X114708047Y-79273040D01*
X114702080Y-79296350D01*
X114695597Y-79323235D01*
X114688533Y-79354012D01*
X114680820Y-79388997D01*
X114672394Y-79428507D01*
X114663187Y-79472860D01*
X114653134Y-79522371D01*
X114642168Y-79577358D01*
X114630223Y-79638138D01*
X114603131Y-79778342D01*
X114571329Y-79945519D01*
X114534287Y-80142204D01*
X114491475Y-80370930D01*
X114386423Y-80934648D01*
X114193223Y-81969500D01*
X114128517Y-82300642D01*
X114079066Y-82534055D01*
X114040364Y-82689580D01*
X114007904Y-82787062D01*
X113977180Y-82846345D01*
X113943686Y-82887272D01*
X113940284Y-82890958D01*
X113936972Y-82894413D01*
X113933675Y-82897646D01*
X113930319Y-82900663D01*
X113926829Y-82903473D01*
X113923129Y-82906081D01*
X113919145Y-82908497D01*
X113914803Y-82910727D01*
X113910025Y-82912778D01*
X113904739Y-82914659D01*
X113898869Y-82916376D01*
X113892340Y-82917937D01*
X113885078Y-82919350D01*
X113877006Y-82920622D01*
X113868051Y-82921759D01*
X113858138Y-82922771D01*
X113847191Y-82923664D01*
X113835135Y-82924445D01*
X113821896Y-82925122D01*
X113807399Y-82925703D01*
X113791568Y-82926194D01*
X113774329Y-82926604D01*
X113735328Y-82927208D01*
X113689794Y-82927575D01*
X113637130Y-82927763D01*
X113508008Y-82927842D01*
X113290030Y-82928917D01*
X113216584Y-82930726D01*
X113161183Y-82933795D01*
X113119590Y-82938436D01*
X113102647Y-82941442D01*
X113087567Y-82944958D01*
X113073821Y-82949021D01*
X113060878Y-82953670D01*
X113035285Y-82964884D01*
X113027565Y-82968742D01*
X113019661Y-82973008D01*
X113011639Y-82977635D01*
X113003562Y-82982578D01*
X112995496Y-82987790D01*
X112987504Y-82993223D01*
X112979652Y-82998833D01*
X112972005Y-83004572D01*
X112964625Y-83010393D01*
X112957580Y-83016251D01*
X112950932Y-83022098D01*
X112944747Y-83027888D01*
X112939088Y-83033575D01*
X112934022Y-83039112D01*
X112929612Y-83044453D01*
X112925922Y-83049551D01*
X112908594Y-83088315D01*
X112872621Y-83180740D01*
X112753504Y-83502429D01*
X112586100Y-83966332D01*
X112387937Y-84524162D01*
X112176958Y-85119557D01*
X112012448Y-85573896D01*
X111902507Y-85865847D01*
X111870533Y-85944261D01*
X111855240Y-85974078D01*
X111822601Y-85979679D01*
X111745432Y-85984572D01*
X111482786Y-85992213D01*
X110701218Y-85998773D01*
X109915021Y-85993426D01*
X109646586Y-85986184D01*
X109565655Y-85981403D01*
X109528675Y-85975842D01*
X109521946Y-85972626D01*
X109515651Y-85969257D01*
X109509788Y-85965724D01*
X109504356Y-85962020D01*
X109499354Y-85958135D01*
X109494781Y-85954060D01*
X109490637Y-85949787D01*
X109486920Y-85945305D01*
X109483629Y-85940606D01*
X109480764Y-85935681D01*
X109478323Y-85930521D01*
X109476305Y-85925117D01*
X109474710Y-85919459D01*
X109473536Y-85913539D01*
X109472783Y-85907348D01*
X109472450Y-85900877D01*
X109472535Y-85894116D01*
X109473037Y-85887057D01*
X109473957Y-85879690D01*
X109475292Y-85872007D01*
X109477041Y-85863998D01*
X109479205Y-85855655D01*
X109481781Y-85846968D01*
X109484769Y-85837928D01*
X109488167Y-85828527D01*
X109491976Y-85818755D01*
X109496193Y-85808603D01*
X109500819Y-85798062D01*
X109505851Y-85787123D01*
X109511289Y-85775777D01*
X109523380Y-85751829D01*
X110366523Y-84123757D01*
X110803304Y-83272985D01*
X111033711Y-82814292D01*
X111091161Y-82691409D01*
X111120582Y-82617866D01*
X111129828Y-82577438D01*
X111126755Y-82553896D01*
X111121844Y-82537240D01*
X111115236Y-82511922D01*
X111107223Y-82479204D01*
X111098094Y-82440347D01*
X111077643Y-82349259D01*
X111056199Y-82248745D01*
X111001085Y-81958187D01*
X110958090Y-81666806D01*
X110927176Y-81374899D01*
X110908309Y-81082759D01*
X110901451Y-80790681D01*
X110906566Y-80498960D01*
X110923619Y-80207890D01*
X110952572Y-79917766D01*
X110993391Y-79628882D01*
X111046038Y-79341532D01*
X111110478Y-79056012D01*
X111186674Y-78772616D01*
X111274590Y-78491639D01*
X111374191Y-78213374D01*
X111485439Y-77938117D01*
X111608298Y-77666162D01*
X111735492Y-77412075D01*
X111873440Y-77162020D01*
X112021816Y-76916347D01*
X112180295Y-76675407D01*
X112348551Y-76439552D01*
X112526258Y-76209134D01*
X112713092Y-75984503D01*
X112908726Y-75766012D01*
X113112834Y-75554011D01*
X113325093Y-75348852D01*
X113545175Y-75150886D01*
X113772755Y-74960465D01*
X114007508Y-74777941D01*
X114249108Y-74603664D01*
X114497230Y-74437986D01*
X114751548Y-74281258D01*
X114858932Y-74218647D01*
X114969003Y-74156738D01*
X115077172Y-74097890D01*
X115178851Y-74044456D01*
X115269450Y-73998795D01*
X115344381Y-73963263D01*
X115399055Y-73940215D01*
X115417361Y-73934110D01*
X115428882Y-73932009D01*
X115433582Y-73932233D01*
X115438408Y-73932893D01*
X115443342Y-73933970D01*
X115448367Y-73935444D01*
X115453464Y-73937297D01*
X115458616Y-73939509D01*
X115463804Y-73942061D01*
X115469010Y-73944935D01*
X115474216Y-73948111D01*
X115479403Y-73951571D01*
X115489653Y-73959263D01*
X115499612Y-73967860D01*
X115509138Y-73977208D01*
X115518085Y-73987156D01*
X115526308Y-73997552D01*
X115533664Y-74008241D01*
X115540006Y-74019073D01*
X115542752Y-74024495D01*
X115545191Y-74029895D01*
X115547304Y-74035254D01*
X115549074Y-74040554D01*
X115550481Y-74045774D01*
X115551509Y-74050897D01*
X115552139Y-74055904D01*
X115552353Y-74060774D01*
X115552210Y-74066017D01*
X115551761Y-74071176D01*
X115550983Y-74076271D01*
X115549849Y-74081320D01*
X115548334Y-74086343D01*
X115546412Y-74091361D01*
X115544058Y-74096391D01*
X115541246Y-74101453D01*
X115537952Y-74106567D01*
X115534148Y-74111752D01*
X115529811Y-74117027D01*
X115524913Y-74122413D01*
X115519431Y-74127927D01*
X115513337Y-74133590D01*
X115506608Y-74139421D01*
X115499216Y-74145439D01*
X115491138Y-74151664D01*
X115482346Y-74158116D01*
X115472816Y-74164812D01*
X115462523Y-74171774D01*
X115439542Y-74186569D01*
X115413200Y-74202656D01*
X115383292Y-74220189D01*
X115349614Y-74239325D01*
X115311963Y-74260218D01*
X115270133Y-74283023D01*
X114922019Y-74485873D01*
X114587173Y-74705605D01*
X114266213Y-74941409D01*
X113959756Y-75192473D01*
X113668419Y-75457985D01*
X113392820Y-75737135D01*
X113133577Y-76029112D01*
X112891307Y-76333102D01*
X112666628Y-76648297D01*
X112460156Y-76973883D01*
X112272511Y-77309051D01*
X112104308Y-77652988D01*
X111956167Y-78004883D01*
X111828704Y-78363925D01*
X111722536Y-78729302D01*
X111638282Y-79100204D01*
X111607529Y-79266895D01*
X111582418Y-79420046D01*
X111562475Y-79565137D01*
X111547223Y-79707643D01*
X111536189Y-79853043D01*
X111528895Y-80006815D01*
X111524867Y-80174436D01*
X111523630Y-80361384D01*
X111524867Y-80548325D01*
X111528895Y-80715898D01*
X111536189Y-80869539D01*
X111547223Y-81014684D01*
X111562475Y-81156770D01*
X111582418Y-81301233D01*
X111607529Y-81453510D01*
X111638282Y-81619036D01*
X111662615Y-81746774D01*
X111681470Y-81839909D01*
X111690129Y-81875193D01*
X111698961Y-81903857D01*
X111708481Y-81926578D01*
X111713659Y-81935922D01*
X111719201Y-81944034D01*
X111725173Y-81950998D01*
X111731638Y-81956900D01*
X111738660Y-81961824D01*
X111746304Y-81965855D01*
X111754635Y-81969077D01*
X111763715Y-81971575D01*
X111784384Y-81974736D01*
X111808825Y-81976017D01*
X111837553Y-81976094D01*
X111909925Y-81975343D01*
X111946068Y-81975051D01*
X111979795Y-81974164D01*
X112011170Y-81972668D01*
X112040259Y-81970547D01*
X112067126Y-81967785D01*
X112091835Y-81964366D01*
X112114451Y-81960276D01*
X112135039Y-81955499D01*
X112153664Y-81950018D01*
X112170389Y-81943820D01*
X112185280Y-81936887D01*
X112198401Y-81929205D01*
X112209817Y-81920759D01*
X112219592Y-81911532D01*
X112227791Y-81901509D01*
X112234479Y-81890675D01*
X113687922Y-78426397D01*
X113689157Y-78423282D01*
X113690858Y-78419910D01*
X113692992Y-78416317D01*
X113695530Y-78412534D01*
X113698439Y-78408597D01*
X113701690Y-78404538D01*
X113705250Y-78400392D01*
X113709090Y-78396191D01*
X113713177Y-78391969D01*
X113717482Y-78387760D01*
X113721972Y-78383598D01*
X113726618Y-78379516D01*
X113731388Y-78375547D01*
X113736250Y-78371726D01*
X113741175Y-78368086D01*
X113746131Y-78364660D01*
X113754309Y-78359922D01*
X113763188Y-78355610D01*
X113773095Y-78351696D01*
X113784358Y-78348152D01*
X113797306Y-78344949D01*
X113812267Y-78342058D01*
X113829569Y-78339452D01*
X113849540Y-78337101D01*
X113872508Y-78334978D01*
X113898801Y-78333053D01*
X113928748Y-78331299D01*
X113962677Y-78329688D01*
X114000915Y-78328190D01*
X114043791Y-78326777D01*
X114144770Y-78324093D01*
X114334058Y-78317947D01*
X114397035Y-78314636D01*
X114443310Y-78310643D01*
X114461218Y-78308268D01*
X114476190Y-78305575D01*
X114488641Y-78302515D01*
X114498983Y-78299039D01*
X114507631Y-78295099D01*
X114514996Y-78290644D01*
X114521494Y-78285626D01*
X114527537Y-78279995D01*
X114533613Y-78270719D01*
X114542580Y-78251511D01*
X114569179Y-78183422D01*
X114607312Y-78075976D01*
X114656959Y-77929422D01*
X114718099Y-77744007D01*
X114790712Y-77519979D01*
X114970270Y-76957079D01*
X115231657Y-76128877D01*
X115369351Y-75702512D01*
X115406283Y-75596506D01*
X115429654Y-75538746D01*
X115445254Y-75511826D01*
X115458869Y-75498342D01*
X115460900Y-75496869D01*
X115463361Y-75495427D01*
X115469589Y-75492637D01*
X115477595Y-75489970D01*
X115487421Y-75487428D01*
X115499106Y-75485010D01*
X115512694Y-75482715D01*
X115528224Y-75480545D01*
X115545739Y-75478498D01*
X115565279Y-75476576D01*
X115586887Y-75474777D01*
X115610603Y-75473103D01*
X115636469Y-75471553D01*
X115664526Y-75470127D01*
X115694815Y-75468825D01*
X115762256Y-75466593D01*
X115864011Y-75462307D01*
X115906899Y-75459756D01*
X115944930Y-75456781D01*
X115978454Y-75453269D01*
X116007824Y-75449105D01*
X116033390Y-75444177D01*
X116055504Y-75438370D01*
X116074517Y-75431571D01*
X116090782Y-75423666D01*
X116104648Y-75414542D01*
X116116469Y-75404084D01*
X116126594Y-75392180D01*
X116135376Y-75378714D01*
X116143166Y-75363575D01*
X116150315Y-75346647D01*
X116254383Y-75014816D01*
X116480161Y-74284787D01*
X116642603Y-73761849D01*
X116745184Y-73445617D01*
X116779711Y-73348169D01*
X116806094Y-73282181D01*
X116826606Y-73240916D01*
X116843522Y-73217634D01*
X116852342Y-73208607D01*
X116860503Y-73200656D01*
X116864440Y-73197057D01*
X116868338Y-73193697D01*
X116872238Y-73190563D01*
X116876182Y-73187647D01*
X116880210Y-73184937D01*
X116884366Y-73182424D01*
X116888690Y-73180097D01*
X116893225Y-73177945D01*
X116898011Y-73175959D01*
X116903091Y-73174128D01*
X116908506Y-73172442D01*
X116914298Y-73170890D01*
X116920509Y-73169462D01*
X116927180Y-73168148D01*
X116934352Y-73166937D01*
X116942069Y-73165819D01*
X116950370Y-73164784D01*
X116959299Y-73163821D01*
X116968896Y-73162920D01*
X116979203Y-73162071D01*
X117002115Y-73160487D01*
X117028367Y-73158985D01*
X117092228Y-73155898D01*
X117163045Y-73152174D01*
X117193354Y-73149902D01*
X117220551Y-73147272D01*
X117244854Y-73144217D01*
X117266481Y-73140674D01*
X117285648Y-73136578D01*
X117302572Y-73131865D01*
X117317470Y-73126469D01*
X117330560Y-73120327D01*
X117342058Y-73113373D01*
X117352182Y-73105544D01*
X117361148Y-73096774D01*
X117369173Y-73087000D01*
X117376475Y-73076156D01*
X117383271Y-73064177D01*
X117392927Y-73019687D01*
X117411906Y-72908348D01*
X117473450Y-72514725D01*
X117559136Y-71942508D01*
X117660203Y-71250898D01*
X117914203Y-69478190D01*
X117968882Y-69428800D01*
X118021799Y-69381176D01*
X119305909Y-69381176D01*
X119984649Y-69382113D01*
G37*
G36*
X119926798Y-74085467D02*
G01*
X120058266Y-74214989D01*
X120173880Y-74331530D01*
X120276141Y-74437818D01*
X120367550Y-74536582D01*
X120450608Y-74630550D01*
X120527816Y-74722452D01*
X120601676Y-74815015D01*
X120674689Y-74910967D01*
X120699921Y-74946135D01*
X120725232Y-74983290D01*
X120750455Y-75022104D01*
X120775423Y-75062248D01*
X120823920Y-75145216D01*
X120869377Y-75229569D01*
X120910453Y-75312682D01*
X120928928Y-75352953D01*
X120945803Y-75391930D01*
X120960911Y-75429284D01*
X120974084Y-75464687D01*
X120985154Y-75497812D01*
X120993952Y-75528329D01*
X121003669Y-75570651D01*
X121011004Y-75612245D01*
X121015973Y-75653042D01*
X121018590Y-75692977D01*
X121018871Y-75731981D01*
X121016833Y-75769988D01*
X121012489Y-75806931D01*
X121005856Y-75842742D01*
X120996950Y-75877354D01*
X120985785Y-75910699D01*
X120972377Y-75942712D01*
X120956743Y-75973324D01*
X120938896Y-76002468D01*
X120918854Y-76030078D01*
X120896630Y-76056086D01*
X120872242Y-76080425D01*
X120839147Y-76109433D01*
X120805507Y-76135719D01*
X120788248Y-76147893D01*
X120770570Y-76159451D01*
X120752380Y-76170413D01*
X120733584Y-76180801D01*
X120714088Y-76190636D01*
X120693797Y-76199940D01*
X120672618Y-76208733D01*
X120650457Y-76217037D01*
X120627220Y-76224873D01*
X120602813Y-76232263D01*
X120577142Y-76239228D01*
X120550112Y-76245790D01*
X120491603Y-76257786D01*
X120426534Y-76268424D01*
X120354152Y-76277873D01*
X120273706Y-76286304D01*
X120184444Y-76293888D01*
X120085615Y-76300795D01*
X119976465Y-76307195D01*
X119856244Y-76313259D01*
X119614539Y-76327867D01*
X119507997Y-76336948D01*
X119410228Y-76347435D01*
X119320654Y-76359493D01*
X119238699Y-76373287D01*
X119163789Y-76388983D01*
X119095345Y-76406745D01*
X119032793Y-76426741D01*
X118975555Y-76449134D01*
X118923057Y-76474090D01*
X118874721Y-76501775D01*
X118829971Y-76532353D01*
X118788232Y-76565991D01*
X118748926Y-76602853D01*
X118711478Y-76643105D01*
X118688735Y-76670525D01*
X118668151Y-76698956D01*
X118649757Y-76728523D01*
X118633581Y-76759347D01*
X118619655Y-76791552D01*
X118608008Y-76825262D01*
X118598670Y-76860598D01*
X118591671Y-76897685D01*
X118587042Y-76936645D01*
X118584813Y-76977601D01*
X118585012Y-77020677D01*
X118587672Y-77065995D01*
X118592821Y-77113679D01*
X118600489Y-77163851D01*
X118610707Y-77216635D01*
X118623504Y-77272154D01*
X118638912Y-77330530D01*
X118656959Y-77391887D01*
X118677675Y-77456347D01*
X118701092Y-77524035D01*
X118756144Y-77669583D01*
X118822356Y-77829515D01*
X118899968Y-78004816D01*
X118989220Y-78196470D01*
X119090352Y-78405461D01*
X119203605Y-78632774D01*
X119349064Y-78918124D01*
X119501096Y-79210005D01*
X119677685Y-79541244D01*
X119896813Y-79944665D01*
X120534625Y-81099351D01*
X121558396Y-82936662D01*
X122995966Y-85520759D01*
X123676827Y-86751953D01*
X123727732Y-86842546D01*
X123769211Y-86918421D01*
X123797130Y-86971475D01*
X123804713Y-86986912D01*
X123807355Y-86993606D01*
X123631352Y-86997216D01*
X123152070Y-87000000D01*
X121576035Y-87002426D01*
X120000000Y-87000000D01*
X119344715Y-86993606D01*
X119077046Y-85692298D01*
X118558021Y-83203008D01*
X117950636Y-80279059D01*
X117601552Y-78501583D01*
X117502478Y-77925622D01*
X117442306Y-77495698D01*
X117412479Y-77164952D01*
X117404438Y-76886523D01*
X117405015Y-76808526D01*
X117406825Y-76736320D01*
X117409984Y-76669494D01*
X117414608Y-76607636D01*
X117420813Y-76550335D01*
X117428716Y-76497182D01*
X117438432Y-76447765D01*
X117450079Y-76401674D01*
X117463772Y-76358497D01*
X117479627Y-76317824D01*
X117497762Y-76279243D01*
X117518292Y-76242345D01*
X117541333Y-76206718D01*
X117567002Y-76171952D01*
X117595415Y-76137635D01*
X117626688Y-76103356D01*
X117651119Y-76077939D01*
X117675536Y-76053891D01*
X117700052Y-76031136D01*
X117724777Y-76009594D01*
X117749822Y-75989190D01*
X117775299Y-75969845D01*
X117801318Y-75951481D01*
X117827992Y-75934022D01*
X117855430Y-75917390D01*
X117883744Y-75901508D01*
X117913044Y-75886297D01*
X117943443Y-75871680D01*
X117975051Y-75857581D01*
X118007980Y-75843920D01*
X118042339Y-75830622D01*
X118078242Y-75817607D01*
X118118135Y-75804553D01*
X118158106Y-75792464D01*
X118198645Y-75781275D01*
X118240244Y-75770918D01*
X118283393Y-75761326D01*
X118328584Y-75752432D01*
X118376306Y-75744168D01*
X118427052Y-75736467D01*
X118481312Y-75729262D01*
X118539576Y-75722487D01*
X118670084Y-75709954D01*
X118822502Y-75698330D01*
X119000757Y-75687079D01*
X119188445Y-75674841D01*
X119360589Y-75660620D01*
X119498339Y-75646399D01*
X119548424Y-75639908D01*
X119582841Y-75634162D01*
X119638867Y-75620635D01*
X119691803Y-75604579D01*
X119741576Y-75586068D01*
X119788114Y-75565177D01*
X119831345Y-75541981D01*
X119871196Y-75516556D01*
X119907595Y-75488976D01*
X119924478Y-75474401D01*
X119940470Y-75459316D01*
X119955564Y-75443729D01*
X119969749Y-75427651D01*
X119983016Y-75411090D01*
X119995358Y-75394055D01*
X120006764Y-75376557D01*
X120017225Y-75358605D01*
X120026734Y-75340208D01*
X120035279Y-75321374D01*
X120042854Y-75302115D01*
X120049447Y-75282439D01*
X120055051Y-75262355D01*
X120059657Y-75241872D01*
X120063255Y-75221001D01*
X120065836Y-75199751D01*
X120067391Y-75178130D01*
X120067911Y-75156149D01*
X120066875Y-75128397D01*
X120064106Y-75099725D01*
X120059618Y-75070154D01*
X120053425Y-75039704D01*
X120035979Y-74976253D01*
X120011880Y-74909535D01*
X119981239Y-74839716D01*
X119944166Y-74766963D01*
X119900774Y-74691439D01*
X119851172Y-74613311D01*
X119795473Y-74532744D01*
X119733787Y-74449903D01*
X119666226Y-74364954D01*
X119592899Y-74278062D01*
X119513920Y-74189392D01*
X119429398Y-74099110D01*
X119339445Y-74007381D01*
X119244172Y-73914370D01*
X119058964Y-73737982D01*
X119572257Y-73737982D01*
X119926798Y-74085467D01*
G37*
D12*
X171738095Y-127542580D02*
X171738095Y-126733057D01*
X171738095Y-126733057D02*
X171785714Y-126637819D01*
X171785714Y-126637819D02*
X171833333Y-126590200D01*
X171833333Y-126590200D02*
X171928571Y-126542580D01*
X171928571Y-126542580D02*
X172119047Y-126542580D01*
X172119047Y-126542580D02*
X172214285Y-126590200D01*
X172214285Y-126590200D02*
X172261904Y-126637819D01*
X172261904Y-126637819D02*
X172309523Y-126733057D01*
X172309523Y-126733057D02*
X172309523Y-127542580D01*
X172738095Y-127447342D02*
X172785714Y-127494961D01*
X172785714Y-127494961D02*
X172880952Y-127542580D01*
X172880952Y-127542580D02*
X173119047Y-127542580D01*
X173119047Y-127542580D02*
X173214285Y-127494961D01*
X173214285Y-127494961D02*
X173261904Y-127447342D01*
X173261904Y-127447342D02*
X173309523Y-127352104D01*
X173309523Y-127352104D02*
X173309523Y-127256866D01*
X173309523Y-127256866D02*
X173261904Y-127114009D01*
X173261904Y-127114009D02*
X172690476Y-126542580D01*
X172690476Y-126542580D02*
X173309523Y-126542580D01*
D13*
%TO.C,U2*%
X166320000Y-116370000D02*
X166320000Y-119030000D01*
X166320000Y-116370000D02*
X179080000Y-116370000D01*
X166320000Y-119030000D02*
X179080000Y-119030000D01*
X179080000Y-116370000D02*
X179080000Y-119030000D01*
X181680000Y-117700000D02*
X181680000Y-119030000D01*
X181680000Y-119030000D02*
X180350000Y-119030000D01*
D12*
X185500000Y-77500000D02*
X162500000Y-77500000D01*
X162500000Y-119500000D01*
X185500000Y-119500000D01*
X185500000Y-77500000D01*
D14*
X165000000Y-79000000D02*
G75*
G02*
X163000000Y-79000000I-1000000J0D01*
G01*
X163000000Y-79000000D02*
G75*
G02*
X165000000Y-79000000I1000000J0D01*
G01*
X165000000Y-118000000D02*
G75*
G02*
X163000000Y-118000000I-1000000J0D01*
G01*
X163000000Y-118000000D02*
G75*
G02*
X165000000Y-118000000I1000000J0D01*
G01*
X185000000Y-79000000D02*
G75*
G02*
X183000000Y-79000000I-1000000J0D01*
G01*
X183000000Y-79000000D02*
G75*
G02*
X185000000Y-79000000I1000000J0D01*
G01*
X185000000Y-118000000D02*
G75*
G02*
X183000000Y-118000000I-1000000J0D01*
G01*
X183000000Y-118000000D02*
G75*
G02*
X185000000Y-118000000I1000000J0D01*
G01*
%TD*%
M02*
