%TF.GenerationSoftware,KiCad,Pcbnew,8.0.4*%
%TF.CreationDate,2024-10-11T13:15:18-06:00*%
%TF.ProjectId,cansat,63616e73-6174-42e6-9b69-6361645f7063,rev?*%
%TF.SameCoordinates,Original*%
%TF.FileFunction,Soldermask,Top*%
%TF.FilePolarity,Negative*%
%FSLAX46Y46*%
G04 Gerber Fmt 4.6, Leading zero omitted, Abs format (unit mm)*
G04 Created by KiCad (PCBNEW 8.0.4) date 2024-10-11 13:15:18*
%MOMM*%
%LPD*%
G01*
G04 APERTURE LIST*
G04 Aperture macros list*
%AMRoundRect*
0 Rectangle with rounded corners*
0 $1 Rounding radius*
0 $2 $3 $4 $5 $6 $7 $8 $9 X,Y pos of 4 corners*
0 Add a 4 corners polygon primitive as box body*
4,1,4,$2,$3,$4,$5,$6,$7,$8,$9,$2,$3,0*
0 Add four circle primitives for the rounded corners*
1,1,$1+$1,$2,$3*
1,1,$1+$1,$4,$5*
1,1,$1+$1,$6,$7*
1,1,$1+$1,$8,$9*
0 Add four rect primitives between the rounded corners*
20,1,$1+$1,$2,$3,$4,$5,0*
20,1,$1+$1,$4,$5,$6,$7,0*
20,1,$1+$1,$6,$7,$8,$9,0*
20,1,$1+$1,$8,$9,$2,$3,0*%
G04 Aperture macros list end*
%ADD10C,1.524000*%
%ADD11R,1.700000X1.700000*%
%ADD12O,1.700000X1.700000*%
%ADD13R,1.600000X1.600000*%
%ADD14O,1.600000X1.600000*%
%ADD15C,1.600000*%
%ADD16C,1.854000*%
%ADD17RoundRect,0.102000X0.825000X0.825000X-0.825000X0.825000X-0.825000X-0.825000X0.825000X-0.825000X0*%
%ADD18C,1.500000*%
%ADD19C,1.900000*%
G04 APERTURE END LIST*
D10*
%TO.C,U8*%
X167547000Y-65523000D03*
X170087000Y-65523000D03*
X172627000Y-65523000D03*
X175167000Y-65523000D03*
X177707000Y-65523000D03*
%TD*%
D11*
%TO.C,J17*%
X118650000Y-117880000D03*
D12*
X118650000Y-115340000D03*
X118650000Y-112800000D03*
%TD*%
D13*
%TO.C,SW1*%
X122500000Y-115460000D03*
D14*
X122500000Y-118000000D03*
X122500000Y-120540000D03*
X122500000Y-123080000D03*
X130120000Y-123080000D03*
X130120000Y-120540000D03*
X130120000Y-118000000D03*
X130120000Y-115460000D03*
%TD*%
D15*
%TO.C,R5*%
X109500000Y-65000000D03*
D14*
X119660000Y-65000000D03*
%TD*%
D11*
%TO.C,U7*%
X103500000Y-76920000D03*
D12*
X103500000Y-79460000D03*
X103500000Y-82000000D03*
X103500000Y-84540000D03*
X103500000Y-87080000D03*
X103500000Y-89620000D03*
%TD*%
D15*
%TO.C,R4*%
X157500000Y-58420000D03*
D14*
X157500000Y-68580000D03*
%TD*%
D15*
%TO.C,R3*%
X133000000Y-58920000D03*
D14*
X133000000Y-69080000D03*
%TD*%
D16*
%TO.C,U1*%
X135490000Y-127900000D03*
X135490000Y-125360000D03*
X135490000Y-122820000D03*
X135490000Y-120280000D03*
X135490000Y-117740000D03*
X135490000Y-115200000D03*
X135490000Y-112660000D03*
X135490000Y-110120000D03*
X135490000Y-107580000D03*
X135490000Y-105040000D03*
X135490000Y-102500000D03*
X135490000Y-99960000D03*
X135490000Y-97420000D03*
X135490000Y-94880000D03*
X135490000Y-92340000D03*
X135490000Y-89800000D03*
X135490000Y-87260000D03*
X135490000Y-84720000D03*
D17*
X158510000Y-127900000D03*
D16*
X158510000Y-125360000D03*
X158510000Y-122820000D03*
X158510000Y-120280000D03*
X158510000Y-117740000D03*
X158510000Y-115200000D03*
X158510000Y-112660000D03*
X158510000Y-110120000D03*
X158510000Y-107580000D03*
X158510000Y-105040000D03*
X158510000Y-102500000D03*
X158510000Y-99960000D03*
X158510000Y-97420000D03*
X158510000Y-94880000D03*
X158510000Y-92340000D03*
X158510000Y-89800000D03*
X158510000Y-87260000D03*
X158510000Y-84720000D03*
%TD*%
D10*
%TO.C,U6*%
X154263000Y-63515000D03*
X151723000Y-63515000D03*
X149183000Y-63515000D03*
X146643000Y-63515000D03*
X144103000Y-63515000D03*
X141563000Y-63515000D03*
X139023000Y-63515000D03*
X136483000Y-63515000D03*
%TD*%
D11*
%TO.C,J1*%
X146960000Y-133500000D03*
D12*
X149500000Y-133500000D03*
%TD*%
D11*
%TO.C,J10*%
X129500000Y-44975000D03*
D12*
X129500000Y-47515000D03*
X129500000Y-50055000D03*
%TD*%
D13*
%TO.C,C1*%
X123794888Y-65000000D03*
D15*
X126294888Y-65000000D03*
%TD*%
D11*
%TO.C,J2*%
X193000000Y-81425000D03*
D12*
X193000000Y-83965000D03*
%TD*%
D15*
%TO.C,R2*%
X125420000Y-56000000D03*
D14*
X135580000Y-56000000D03*
%TD*%
D15*
%TO.C,R6*%
X104000000Y-103080000D03*
D14*
X104000000Y-92920000D03*
%TD*%
D11*
%TO.C,U3*%
X115470000Y-103450000D03*
D12*
X118010000Y-103450000D03*
X120550000Y-103450000D03*
X123090000Y-103450000D03*
%TD*%
D10*
%TO.C,U5*%
X150953000Y-47277000D03*
X148413000Y-47277000D03*
X145873000Y-47277000D03*
X143333000Y-47277000D03*
X140793000Y-47277000D03*
%TD*%
D11*
%TO.C,J7*%
X150800000Y-40000000D03*
D12*
X148260000Y-40000000D03*
X145720000Y-40000000D03*
X143180000Y-40000000D03*
%TD*%
D11*
%TO.C,J16*%
X193000000Y-94080000D03*
D12*
X193000000Y-91540000D03*
X193000000Y-89000000D03*
%TD*%
D18*
%TO.C,R1*%
X119600000Y-56000000D03*
X123000000Y-56000000D03*
%TD*%
D11*
%TO.C,J18*%
X114000000Y-117880000D03*
D12*
X114000000Y-115340000D03*
X114000000Y-112800000D03*
%TD*%
D19*
%TO.C,U4*%
X186900000Y-86840000D03*
X186900000Y-84300000D03*
X186900000Y-81760000D03*
X186900000Y-79220000D03*
X186900000Y-76680000D03*
X186900000Y-74140000D03*
X165030000Y-71600000D03*
X165030000Y-74140000D03*
X165030000Y-76680000D03*
X165030000Y-79220000D03*
X165030000Y-81760000D03*
X165030000Y-84300000D03*
%TD*%
D15*
%TO.C,R7*%
X107420000Y-109000000D03*
D14*
X117580000Y-109000000D03*
%TD*%
D11*
%TO.C,J9*%
X133200000Y-45060000D03*
D12*
X133200000Y-47600000D03*
X133200000Y-50140000D03*
%TD*%
D11*
%TO.C,J8*%
X150540000Y-44000000D03*
D12*
X148000000Y-44000000D03*
X145460000Y-44000000D03*
X142920000Y-44000000D03*
%TD*%
D11*
%TO.C,J11*%
X125700000Y-44920000D03*
D12*
X125700000Y-47460000D03*
X125700000Y-50000000D03*
%TD*%
D11*
%TO.C,U2*%
X180350000Y-117700000D03*
D12*
X177810000Y-117700000D03*
X175270000Y-117700000D03*
X172730000Y-117700000D03*
X170190000Y-117700000D03*
X167650000Y-117700000D03*
%TD*%
M02*
